<?xml version="1.0" encoding="UTF-8" standalone="no"?>
<!-- Created with Inkscape (http://www.inkscape.org/) -->

<svg
   xmlns:dc="http://purl.org/dc/elements/1.1/"
   xmlns:cc="http://creativecommons.org/ns#"
   xmlns:rdf="http://www.w3.org/1999/02/22-rdf-syntax-ns#"
   xmlns:svg="http://www.w3.org/2000/svg"
   xmlns="http://www.w3.org/2000/svg"
   xmlns:sodipodi="http://sodipodi.sourceforge.net/DTD/sodipodi-0.dtd"
   xmlns:inkscape="http://www.inkscape.org/namespaces/inkscape"
   width="32"
   height="32"
   viewBox="0 0 32 32.000001"
   id="svg4244"
   version="1.1"
   inkscape:version="0.91 r13725"
   sodipodi:docname="30.svg">
  <defs
     id="defs4246" />
  <sodipodi:namedview
     id="base"
     pagecolor="#ffffff"
     bordercolor="#666666"
     borderopacity="1.0"
     inkscape:pageopacity="0.0"
     inkscape:pageshadow="2"
     inkscape:zoom="11.313709"
     inkscape:cx="-3.2003289"
     inkscape:cy="6.2640831"
     inkscape:document-units="px"
     inkscape:current-layer="g4783"
     showgrid="true"
     units="px"
     inkscape:window-width="1366"
     inkscape:window-height="705"
     inkscape:window-x="-8"
     inkscape:window-y="-8"
     inkscape:window-maximized="1"
     inkscape:snap-bbox="true"
     inkscape:bbox-paths="true"
     inkscape:bbox-nodes="true"
     inkscape:snap-bbox-edge-midpoints="true"
     inkscape:snap-bbox-midpoints="true">
    <inkscape:grid
       type="xygrid"
       id="grid4252" />
  </sodipodi:namedview>
  <metadata
     id="metadata4249">
    <rdf:RDF>
      <cc:Work
         rdf:about="">
        <dc:format>image/svg+xml</dc:format>
        <dc:type
           rdf:resource="http://purl.org/dc/dcmitype/StillImage" />
        <dc:title></dc:title>
      </cc:Work>
    </rdf:RDF>
  </metadata>
  <g
     inkscape:label="Layer 1"
     inkscape:groupmode="layer"
     id="layer1"
     transform="translate(0,-1020.3622)">
    <g
       id="g4783"
       transform="translate(-4.2590071,-3.0333347)">
      <g
         id="g8933">
        <path
           id="rect5415"
           d="m 22.255859,1027.3955 1.999966,0 c 3.32401,0 6.000017,2.676 6.000017,6 l 0,5 c 0,3.324 -2.676007,6 -6.000017,6 l -1.999966,0 c -3.324009,0 -6.000017,-2.676 -6.000017,-6 l 0,-5 c 0,-3.324 2.676008,-6 6.000017,-6 z"
           style="fill:#e6001f;fill-opacity:1;stroke:none;stroke-width:1;stroke-linecap:round;stroke-linejoin:round;stroke-opacity:1" />
        <path
           id="rect5417"
           d="m 19.25586,1046.3955 7.999965,0 c 0.554009,0 1.000017,0.446 1.000017,1 l 0,3 c 0,0.554 -0.446008,1 -1.000017,1 l -7.999965,0 c -0.55401,0 -1.000018,-0.446 -1.000018,-1 l 0,-3 c 0,-0.554 0.446008,-1 1.000018,-1 z"
           style="fill:#e6001f;fill-opacity:1;stroke:none;stroke-width:1;stroke-linecap:round;stroke-linejoin:round;stroke-opacity:1" />
        <path
           id="rect5419"
           d="m 17.255842,1035.3955 12,0 c 0.554,0 1,0.446 1,1 l 0,10 c 0,0.554 -0.446,1 -1,1 l -12,0 c -0.554,0 -1,-0.446 -1,-1 l 0,-10 c 0,-0.554 0.446,-1 1,-1 z"
           style="fill:#e6001f;fill-opacity:1;stroke:none;stroke-width:1;stroke-linecap:round;stroke-linejoin:round;stroke-opacity:1" />
        <path
           id="rect5421"
           d="m 744.64131,723.29742 6.47119,0 c 1.10801,0 2.00002,0.89201 2.00002,2.00002 l 0,1.99997 c 0,1.10801 -0.89201,2.00001 -2.00002,2.00001 l -6.47119,0 c -1.10801,0 -2.00001,-0.892 -2.00001,-2.00001 l 0,-1.99997 c 0,-1.10801 0.892,-2.00002 2.00001,-2.00002 z"
           style="fill:#e6001f;fill-opacity:1;stroke:none;stroke-width:1;stroke-linecap:round;stroke-linejoin:round;stroke-opacity:1"
           transform="matrix(0.70710678,0.70710678,-0.70710678,0.70710678,0,0)" />
        <path
           inkscape:connector-curvature="0"
           id="path5423"
           d="m 19.748047,1047.3887 a 0.50005,0.50005 0 0 0 -0.492188,0.5058 l 0,1.9942 a 0.50005,0.50005 0 1 0 1,0 l 0,-1.9942 a 0.50005,0.50005 0 0 0 -0.507812,-0.5058 z"
           style="color:#000000;font-style:normal;font-variant:normal;font-weight:normal;font-stretch:normal;font-size:medium;line-height:normal;font-family:sans-serif;text-indent:0;text-align:start;text-decoration:none;text-decoration-line:none;text-decoration-style:solid;text-decoration-color:#000000;letter-spacing:normal;word-spacing:normal;text-transform:none;direction:ltr;block-progression:tb;writing-mode:lr-tb;baseline-shift:baseline;text-anchor:start;white-space:normal;clip-rule:nonzero;display:inline;overflow:visible;visibility:visible;opacity:1;isolation:auto;mix-blend-mode:normal;color-interpolation:sRGB;color-interpolation-filters:linearRGB;solid-color:#000000;solid-opacity:1;fill:#990012;fill-opacity:1;fill-rule:evenodd;stroke:none;stroke-width:1px;stroke-linecap:round;stroke-linejoin:round;stroke-miterlimit:4;stroke-dasharray:none;stroke-dashoffset:0;stroke-opacity:1;color-rendering:auto;image-rendering:auto;shape-rendering:auto;text-rendering:auto;enable-background:accumulate" />
        <path
           inkscape:connector-curvature="0"
           id="path5425"
           d="m 21.748047,1047.3887 a 0.50005,0.50005 0 0 0 -0.492188,0.5058 l 0,1.9942 a 0.50005,0.50005 0 1 0 1,0 l 0,-1.9942 a 0.50005,0.50005 0 0 0 -0.507812,-0.5058 z"
           style="color:#000000;font-style:normal;font-variant:normal;font-weight:normal;font-stretch:normal;font-size:medium;line-height:normal;font-family:sans-serif;text-indent:0;text-align:start;text-decoration:none;text-decoration-line:none;text-decoration-style:solid;text-decoration-color:#000000;letter-spacing:normal;word-spacing:normal;text-transform:none;direction:ltr;block-progression:tb;writing-mode:lr-tb;baseline-shift:baseline;text-anchor:start;white-space:normal;clip-rule:nonzero;display:inline;overflow:visible;visibility:visible;opacity:1;isolation:auto;mix-blend-mode:normal;color-interpolation:sRGB;color-interpolation-filters:linearRGB;solid-color:#000000;solid-opacity:1;fill:#990012;fill-opacity:1;fill-rule:evenodd;stroke:none;stroke-width:1px;stroke-linecap:round;stroke-linejoin:round;stroke-miterlimit:4;stroke-dasharray:none;stroke-dashoffset:0;stroke-opacity:1;color-rendering:auto;image-rendering:auto;shape-rendering:auto;text-rendering:auto;enable-background:accumulate" />
        <path
           inkscape:connector-curvature="0"
           id="path5427"
           d="m 23.748047,1047.3887 a 0.50005,0.50005 0 0 0 -0.492188,0.5058 l 0,1.9942 a 0.50005,0.50005 0 1 0 1,0 l 0,-1.9942 a 0.50005,0.50005 0 0 0 -0.507812,-0.5058 z"
           style="color:#000000;font-style:normal;font-variant:normal;font-weight:normal;font-stretch:normal;font-size:medium;line-height:normal;font-family:sans-serif;text-indent:0;text-align:start;text-decoration:none;text-decoration-line:none;text-decoration-style:solid;text-decoration-color:#000000;letter-spacing:normal;word-spacing:normal;text-transform:none;direction:ltr;block-progression:tb;writing-mode:lr-tb;baseline-shift:baseline;text-anchor:start;white-space:normal;clip-rule:nonzero;display:inline;overflow:visible;visibility:visible;opacity:1;isolation:auto;mix-blend-mode:normal;color-interpolation:sRGB;color-interpolation-filters:linearRGB;solid-color:#000000;solid-opacity:1;fill:#990012;fill-opacity:1;fill-rule:evenodd;stroke:none;stroke-width:1px;stroke-linecap:round;stroke-linejoin:round;stroke-miterlimit:4;stroke-dasharray:none;stroke-dashoffset:0;stroke-opacity:1;color-rendering:auto;image-rendering:auto;shape-rendering:auto;text-rendering:auto;enable-background:accumulate" />
        <path
           inkscape:connector-curvature="0"
           id="path5429"
           d="m 25.748047,1047.3887 a 0.50005,0.50005 0 0 0 -0.492188,0.5058 l 0,1.9942 a 0.50005,0.50005 0 1 0 1,0 l 0,-1.9942 a 0.50005,0.50005 0 0 0 -0.507812,-0.5058 z"
           style="color:#000000;font-style:normal;font-variant:normal;font-weight:normal;font-stretch:normal;font-size:medium;line-height:normal;font-family:sans-serif;text-indent:0;text-align:start;text-decoration:none;text-decoration-line:none;text-decoration-style:solid;text-decoration-color:#000000;letter-spacing:normal;word-spacing:normal;text-transform:none;direction:ltr;block-progression:tb;writing-mode:lr-tb;baseline-shift:baseline;text-anchor:start;white-space:normal;clip-rule:nonzero;display:inline;overflow:visible;visibility:visible;opacity:1;isolation:auto;mix-blend-mode:normal;color-interpolation:sRGB;color-interpolation-filters:linearRGB;solid-color:#000000;solid-opacity:1;fill:#990012;fill-opacity:1;fill-rule:evenodd;stroke:none;stroke-width:1px;stroke-linecap:round;stroke-linejoin:round;stroke-miterlimit:4;stroke-dasharray:none;stroke-dashoffset:0;stroke-opacity:1;color-rendering:auto;image-rendering:auto;shape-rendering:auto;text-rendering:auto;enable-background:accumulate" />
        <path
           inkscape:connector-curvature="0"
           id="path5229-0"
           d="m 23.248047,1036.2402 a 0.50005,0.50005 0 0 0 -0.492188,0.5078 l 0,8.1387 a 0.50005,0.50005 0 1 0 1,0 l 0,-8.1387 a 0.50005,0.50005 0 0 0 -0.507812,-0.5078 z"
           style="color:#000000;font-style:normal;font-variant:normal;font-weight:normal;font-stretch:normal;font-size:medium;line-height:normal;font-family:sans-serif;text-indent:0;text-align:start;text-decoration:none;text-decoration-line:none;text-decoration-style:solid;text-decoration-color:#000000;letter-spacing:normal;word-spacing:normal;text-transform:none;direction:ltr;block-progression:tb;writing-mode:lr-tb;baseline-shift:baseline;text-anchor:start;white-space:normal;clip-rule:nonzero;display:inline;overflow:visible;visibility:visible;opacity:1;isolation:auto;mix-blend-mode:normal;color-interpolation:sRGB;color-interpolation-filters:linearRGB;solid-color:#000000;solid-opacity:1;fill:#c7c6ce;fill-opacity:1;fill-rule:evenodd;stroke:none;stroke-width:1;stroke-linecap:round;stroke-linejoin:round;stroke-miterlimit:4;stroke-dasharray:none;stroke-dashoffset:0;stroke-opacity:1;color-rendering:auto;image-rendering:auto;shape-rendering:auto;text-rendering:auto;enable-background:accumulate" />
        <path
           inkscape:connector-curvature="0"
           id="path5231-9"
           d="m 22.330078,1037 a 0.50005,0.50005 0 0 0 -0.279297,0.918 l 0.925781,0.6269 a 0.50005,0.50005 0 0 0 0.560547,0 l 0.923829,-0.6269 a 0.50005,0.50005 0 1 0 -0.560547,-0.8282 l -0.644532,0.4375 -0.644531,-0.4375 a 0.50005,0.50005 0 0 0 -0.28125,-0.09 z"
           style="color:#000000;font-style:normal;font-variant:normal;font-weight:normal;font-stretch:normal;font-size:medium;line-height:normal;font-family:sans-serif;text-indent:0;text-align:start;text-decoration:none;text-decoration-line:none;text-decoration-style:solid;text-decoration-color:#000000;letter-spacing:normal;word-spacing:normal;text-transform:none;direction:ltr;block-progression:tb;writing-mode:lr-tb;baseline-shift:baseline;text-anchor:start;white-space:normal;clip-rule:nonzero;display:inline;overflow:visible;visibility:visible;opacity:1;isolation:auto;mix-blend-mode:normal;color-interpolation:sRGB;color-interpolation-filters:linearRGB;solid-color:#000000;solid-opacity:1;fill:#c7c6ce;fill-opacity:1;fill-rule:evenodd;stroke:none;stroke-width:1;stroke-linecap:round;stroke-linejoin:round;stroke-miterlimit:4;stroke-dasharray:none;stroke-dashoffset:0;stroke-opacity:1;color-rendering:auto;image-rendering:auto;shape-rendering:auto;text-rendering:auto;enable-background:accumulate" />
        <path
           inkscape:connector-curvature="0"
           id="path5233-0"
           d="m 23.253906,1042.8379 a 0.50005,0.50005 0 0 0 -0.277344,0.086 l -0.925781,0.627 a 0.50005,0.50005 0 1 0 0.560547,0.8281 l 0.644531,-0.4375 0.644532,0.4375 a 0.50005,0.50005 0 1 0 0.560547,-0.8281 l -0.923829,-0.627 a 0.50005,0.50005 0 0 0 -0.283203,-0.086 z"
           style="color:#000000;font-style:normal;font-variant:normal;font-weight:normal;font-stretch:normal;font-size:medium;line-height:normal;font-family:sans-serif;text-indent:0;text-align:start;text-decoration:none;text-decoration-line:none;text-decoration-style:solid;text-decoration-color:#000000;letter-spacing:normal;word-spacing:normal;text-transform:none;direction:ltr;block-progression:tb;writing-mode:lr-tb;baseline-shift:baseline;text-anchor:start;white-space:normal;clip-rule:nonzero;display:inline;overflow:visible;visibility:visible;opacity:1;isolation:auto;mix-blend-mode:normal;color-interpolation:sRGB;color-interpolation-filters:linearRGB;solid-color:#000000;solid-opacity:1;fill:#c7c6ce;fill-opacity:1;fill-rule:evenodd;stroke:none;stroke-width:1;stroke-linecap:round;stroke-linejoin:round;stroke-miterlimit:4;stroke-dasharray:none;stroke-dashoffset:0;stroke-opacity:1;color-rendering:auto;image-rendering:auto;shape-rendering:auto;text-rendering:auto;enable-background:accumulate" />
        <path
           inkscape:connector-curvature="0"
           id="path5235-9"
           d="M 26.771484,1038.2812 A 0.50005,0.50005 0 0 0 26.5,1038.3535 l -6.990234,4.0684 a 0.50005,0.50005 0 1 0 0.503906,0.8633 l 6.988281,-4.0684 a 0.50005,0.50005 0 0 0 -0.230469,-0.9356 z"
           style="color:#000000;font-style:normal;font-variant:normal;font-weight:normal;font-stretch:normal;font-size:medium;line-height:normal;font-family:sans-serif;text-indent:0;text-align:start;text-decoration:none;text-decoration-line:none;text-decoration-style:solid;text-decoration-color:#000000;letter-spacing:normal;word-spacing:normal;text-transform:none;direction:ltr;block-progression:tb;writing-mode:lr-tb;baseline-shift:baseline;text-anchor:start;white-space:normal;clip-rule:nonzero;display:inline;overflow:visible;visibility:visible;opacity:1;isolation:auto;mix-blend-mode:normal;color-interpolation:sRGB;color-interpolation-filters:linearRGB;solid-color:#000000;solid-opacity:1;fill:#c7c6ce;fill-opacity:1;fill-rule:evenodd;stroke:none;stroke-width:1;stroke-linecap:round;stroke-linejoin:round;stroke-miterlimit:4;stroke-dasharray:none;stroke-dashoffset:0;stroke-opacity:1;color-rendering:auto;image-rendering:auto;shape-rendering:auto;text-rendering:auto;enable-background:accumulate" />
        <path
           inkscape:connector-curvature="0"
           id="path5237-2"
           d="m 19.726562,1038.2773 a 0.50005,0.50005 0 0 0 -0.216796,0.9356 L 26.5,1043.2812 a 0.50005,0.50005 0 1 0 0.501953,-0.8632 l -6.988281,-4.0684 a 0.50005,0.50005 0 0 0 -0.28711,-0.072 z"
           style="color:#000000;font-style:normal;font-variant:normal;font-weight:normal;font-stretch:normal;font-size:medium;line-height:normal;font-family:sans-serif;text-indent:0;text-align:start;text-decoration:none;text-decoration-line:none;text-decoration-style:solid;text-decoration-color:#000000;letter-spacing:normal;word-spacing:normal;text-transform:none;direction:ltr;block-progression:tb;writing-mode:lr-tb;baseline-shift:baseline;text-anchor:start;white-space:normal;clip-rule:nonzero;display:inline;overflow:visible;visibility:visible;opacity:1;isolation:auto;mix-blend-mode:normal;color-interpolation:sRGB;color-interpolation-filters:linearRGB;solid-color:#000000;solid-opacity:1;fill:#c7c6ce;fill-opacity:1;fill-rule:evenodd;stroke:none;stroke-width:1;stroke-linecap:round;stroke-linejoin:round;stroke-miterlimit:4;stroke-dasharray:none;stroke-dashoffset:0;stroke-opacity:1;color-rendering:auto;image-rendering:auto;shape-rendering:auto;text-rendering:auto;enable-background:accumulate" />
        <path
           inkscape:connector-curvature="0"
           id="path5239-1"
           d="m 25.566406,1037.8105 a 0.50005,0.50005 0 0 0 -0.478515,0.4707 l -0.07813,1.1153 a 0.50005,0.50005 0 0 0 0.279296,0.4863 l 1.003907,0.4883 a 0.50053132,0.50053132 0 1 0 0.4375,-0.9004 l -0.699219,-0.3398 0.05469,-0.7793 a 0.50005,0.50005 0 0 0 -0.519532,-0.5411 z"
           style="color:#000000;font-style:normal;font-variant:normal;font-weight:normal;font-stretch:normal;font-size:medium;line-height:normal;font-family:sans-serif;text-indent:0;text-align:start;text-decoration:none;text-decoration-line:none;text-decoration-style:solid;text-decoration-color:#000000;letter-spacing:normal;word-spacing:normal;text-transform:none;direction:ltr;block-progression:tb;writing-mode:lr-tb;baseline-shift:baseline;text-anchor:start;white-space:normal;clip-rule:nonzero;display:inline;overflow:visible;visibility:visible;opacity:1;isolation:auto;mix-blend-mode:normal;color-interpolation:sRGB;color-interpolation-filters:linearRGB;solid-color:#000000;solid-opacity:1;fill:#c7c6ce;fill-opacity:1;fill-rule:evenodd;stroke:none;stroke-width:1;stroke-linecap:round;stroke-linejoin:round;stroke-miterlimit:4;stroke-dasharray:none;stroke-dashoffset:0;stroke-opacity:1;color-rendering:auto;image-rendering:auto;shape-rendering:auto;text-rendering:auto;enable-background:accumulate" />
        <path
           inkscape:connector-curvature="0"
           id="path5241-6"
           d="m 19.976562,1041.0449 a 0.50005,0.50005 0 0 0 -0.195312,0.9512 l 0.701172,0.3418 -0.05664,0.7773 a 0.50033117,0.50033117 0 1 0 0.998047,0.072 l 0.08008,-1.1152 a 0.50005,0.50005 0 0 0 -0.28125,-0.4864 l -1.003906,-0.4882 a 0.50005,0.50005 0 0 0 -0.242188,-0.053 z"
           style="color:#000000;font-style:normal;font-variant:normal;font-weight:normal;font-stretch:normal;font-size:medium;line-height:normal;font-family:sans-serif;text-indent:0;text-align:start;text-decoration:none;text-decoration-line:none;text-decoration-style:solid;text-decoration-color:#000000;letter-spacing:normal;word-spacing:normal;text-transform:none;direction:ltr;block-progression:tb;writing-mode:lr-tb;baseline-shift:baseline;text-anchor:start;white-space:normal;clip-rule:nonzero;display:inline;overflow:visible;visibility:visible;opacity:1;isolation:auto;mix-blend-mode:normal;color-interpolation:sRGB;color-interpolation-filters:linearRGB;solid-color:#000000;solid-opacity:1;fill:#c7c6ce;fill-opacity:1;fill-rule:evenodd;stroke:none;stroke-width:1;stroke-linecap:round;stroke-linejoin:round;stroke-miterlimit:4;stroke-dasharray:none;stroke-dashoffset:0;stroke-opacity:1;color-rendering:auto;image-rendering:auto;shape-rendering:auto;text-rendering:auto;enable-background:accumulate" />
        <path
           inkscape:connector-curvature="0"
           id="path5243-2"
           d="m 26.519531,1041.0449 a 0.50005,0.50005 0 0 0 -0.226562,0.053 l -1.003907,0.4882 a 0.50005,0.50005 0 0 0 -0.279296,0.4864 l 0.07813,1.1152 a 0.50033117,0.50033117 0 1 0 0.998047,-0.072 l -0.05469,-0.7773 0.699219,-0.3418 a 0.50005,0.50005 0 0 0 -0.210938,-0.9512 z"
           style="color:#000000;font-style:normal;font-variant:normal;font-weight:normal;font-stretch:normal;font-size:medium;line-height:normal;font-family:sans-serif;text-indent:0;text-align:start;text-decoration:none;text-decoration-line:none;text-decoration-style:solid;text-decoration-color:#000000;letter-spacing:normal;word-spacing:normal;text-transform:none;direction:ltr;block-progression:tb;writing-mode:lr-tb;baseline-shift:baseline;text-anchor:start;white-space:normal;clip-rule:nonzero;display:inline;overflow:visible;visibility:visible;opacity:1;isolation:auto;mix-blend-mode:normal;color-interpolation:sRGB;color-interpolation-filters:linearRGB;solid-color:#000000;solid-opacity:1;fill:#c7c6ce;fill-opacity:1;fill-rule:evenodd;stroke:none;stroke-width:1;stroke-linecap:round;stroke-linejoin:round;stroke-miterlimit:4;stroke-dasharray:none;stroke-dashoffset:0;stroke-opacity:1;color-rendering:auto;image-rendering:auto;shape-rendering:auto;text-rendering:auto;enable-background:accumulate" />
        <path
           inkscape:connector-curvature="0"
           id="path5245-8"
           d="m 20.931641,1037.8105 a 0.50005,0.50005 0 0 0 -0.50586,0.5411 l 0.05664,0.7793 -0.701172,0.3398 a 0.50053132,0.50053132 0 1 0 0.4375,0.9004 l 1.003906,-0.4883 a 0.50005,0.50005 0 0 0 0.28125,-0.4863 l -0.08008,-1.1153 a 0.50005,0.50005 0 0 0 -0.492187,-0.4707 z"
           style="color:#000000;font-style:normal;font-variant:normal;font-weight:normal;font-stretch:normal;font-size:medium;line-height:normal;font-family:sans-serif;text-indent:0;text-align:start;text-decoration:none;text-decoration-line:none;text-decoration-style:solid;text-decoration-color:#000000;letter-spacing:normal;word-spacing:normal;text-transform:none;direction:ltr;block-progression:tb;writing-mode:lr-tb;baseline-shift:baseline;text-anchor:start;white-space:normal;clip-rule:nonzero;display:inline;overflow:visible;visibility:visible;opacity:1;isolation:auto;mix-blend-mode:normal;color-interpolation:sRGB;color-interpolation-filters:linearRGB;solid-color:#000000;solid-opacity:1;fill:#c7c6ce;fill-opacity:1;fill-rule:evenodd;stroke:none;stroke-width:1;stroke-linecap:round;stroke-linejoin:round;stroke-miterlimit:4;stroke-dasharray:none;stroke-dashoffset:0;stroke-opacity:1;color-rendering:auto;image-rendering:auto;shape-rendering:auto;text-rendering:auto;enable-background:accumulate" />
        <path
           id="path5489-3"
           d="m 24.226545,1028.8955 a 0.50005,0.50005 0 0 0 -0.05664,0.01 0.50005,0.50005 0 0 0 -0.134765,0.049 0.50005,0.50005 0 0 0 -0.0098,0 0.50005,0.50005 0 0 0 -0.03906,0.023 0.50005,0.50005 0 0 0 -0.0332,0.024 l -1.697238,1.269 -1.699219,-1.2734 a 0.50005,0.50005 0 0 0 -0.002,0 0.50005,0.50005 0 0 0 -0.03906,-0.029 0.50005,0.50005 0 0 0 -0.002,0 0.50005,0.50005 0 0 0 -0.02344,-0.014 0.50005,0.50005 0 0 0 -0.02148,-0.012 0.50005,0.50005 0 0 0 -0.04297,-0.018 0.50005,0.50005 0 0 0 -0.08008,-0.023 0.50005,0.50005 0 0 0 -0.390625,0.092 l -1.699126,1.2774 -0.738281,-0.5547 c -0.204913,0.2639 -0.391695,0.5412 -0.550781,0.8379 l 0.988281,0.7402 a 0.50005,0.50005 0 0 0 0.601562,0 l 1.699219,-1.2754 0.576172,0.4317 a 5.9999974,5.9999974 0 0 0 0.002,0.01 l 1.117187,0.8379 a 0.50005,0.50005 0 0 0 0.04297,0.029 0.50005,0.50005 0 0 0 0.002,0 0.50005,0.50005 0 0 0 0.08789,0.043 0.50005,0.50005 0 0 0 0.002,0 0.50005,0.50005 0 0 0 0.04492,0.014 0.50005,0.50005 0 0 0 0.0039,0 0.50005,0.50005 0 0 0 0.04492,0.01 0.50005,0.50005 0 0 0 0.0039,0 0.50005,0.50005 0 0 0 0.04687,0.01 0.50005,0.50005 0 0 0 0.002,0 0.50005,0.50005 0 0 0 0.19336,-0.031 0.50005,0.50005 0 0 0 0.04687,-0.02 0.50005,0.50005 0 0 0 0.002,0 0.50005,0.50005 0 0 0 0.08203,-0.051 l 1.119141,-0.8398 a 5.9999974,5.9999974 0 0 0 0.002,0 l 0.574219,-0.4317 1.699218,1.2754 a 0.50005,0.50005 0 0 0 0.601563,0 l 1.699219,-1.2754 1.589844,1.1934 c -0.349956,-0.8984 -0.907879,-1.6884 -1.617443,-2.3144 a 0.50005,0.50005 0 0 0 -0.273438,0.1 l -1.699218,1.2734 -1.699219,-1.2734 a 0.50005,0.50005 0 0 0 -0.326172,-0.1016 z m 0,3 a 0.50005,0.50005 0 0 0 -0.05664,0.01 0.50005,0.50005 0 0 0 -0.134765,0.049 0.50005,0.50005 0 0 0 -0.0098,0 0.50005,0.50005 0 0 0 -0.03906,0.023 0.50005,0.50005 0 0 0 -0.0332,0.024 l -1.697238,1.269 -1.699219,-1.2734 a 0.50005,0.50005 0 0 0 -0.002,0 0.50005,0.50005 0 0 0 -0.03906,-0.029 0.50005,0.50005 0 0 0 -0.002,0 0.50005,0.50005 0 0 0 -0.02344,-0.014 0.50005,0.50005 0 0 0 -0.02148,-0.012 0.50005,0.50005 0 0 0 -0.04297,-0.018 0.50005,0.50005 0 0 0 -0.08008,-0.023 0.50005,0.50005 0 0 0 -0.390625,0.092 l -1.699126,1.2774 -1.699219,-1.2734 a 0.50005,0.50005 0 0 0 -0.115234,-0.064 c -0.08851,0.3551 -0.145515,0.7222 -0.167969,1.0996 l 1.681641,1.2617 a 0.50005,0.50005 0 0 0 0.601562,0 l 1.699219,-1.2759 0.576172,0.4317 a 5.9999974,5.9999974 0 0 0 0.002,0.01 l 1.117187,0.8379 a 0.50005,0.50005 0 0 0 0.04297,0.029 0.50005,0.50005 0 0 0 0.002,0 0.50005,0.50005 0 0 0 0.08789,0.043 0.50005,0.50005 0 0 0 0.002,0 0.50005,0.50005 0 0 0 0.04492,0.014 0.50005,0.50005 0 0 0 0.0039,0 0.50005,0.50005 0 0 0 0.04492,0.01 0.50005,0.50005 0 0 0 0.0039,0 0.50005,0.50005 0 0 0 0.04687,0.01 0.50005,0.50005 0 0 0 0.002,0 0.50005,0.50005 0 0 0 0.19336,-0.031 0.50005,0.50005 0 0 0 0.04687,-0.02 0.50005,0.50005 0 0 0 0.002,0 0.50005,0.50005 0 0 0 0.08203,-0.051 l 1.119141,-0.8398 a 5.9999974,5.9999974 0 0 0 0.002,0 l 0.574219,-0.4317 1.699218,1.2754 a 0.50005,0.50005 0 0 0 0.601563,0 l 1.699219,-1.2754 1.699218,1.2754 a 0.50005,0.50005 0 0 0 0.304433,0.1 l 0,-0.998 c 0,-0.043 -0.005,-0.084 -0.0059,-0.127 l -1.697225,-1.2714 a 0.50005,0.50005 0 0 0 -0.601563,0 l -1.699218,1.2734 -1.699219,-1.2734 a 0.50005,0.50005 0 0 0 -0.326172,-0.1016 z"
           style="color:#000000;font-style:normal;font-variant:normal;font-weight:normal;font-stretch:normal;font-size:medium;line-height:normal;font-family:sans-serif;text-indent:0;text-align:start;text-decoration:none;text-decoration-line:none;text-decoration-style:solid;text-decoration-color:#000000;letter-spacing:normal;word-spacing:normal;text-transform:none;direction:ltr;block-progression:tb;writing-mode:lr-tb;baseline-shift:baseline;text-anchor:start;white-space:normal;clip-rule:nonzero;display:inline;overflow:visible;visibility:visible;opacity:1;isolation:auto;mix-blend-mode:normal;color-interpolation:sRGB;color-interpolation-filters:linearRGB;solid-color:#000000;solid-opacity:1;fill:#c7c6ce;fill-opacity:1;fill-rule:evenodd;stroke:none;stroke-width:1px;stroke-linecap:round;stroke-linejoin:round;stroke-miterlimit:4;stroke-dasharray:none;stroke-dashoffset:0;stroke-opacity:1;color-rendering:auto;image-rendering:auto;shape-rendering:auto;text-rendering:auto;enable-background:accumulate"
           inkscape:connector-curvature="0" />
        <path
           id="rect5657"
           d="m 15.255842,1038.1533 0,8.4844 0.169922,0.1699 c 0.24015,0.2402 0.527639,0.3973 0.830078,0.4902 l 0,-8.1445 -1,-1 z"
           style="fill:#990012;fill-opacity:1;stroke:none;stroke-width:1;stroke-linecap:round;stroke-linejoin:round;stroke-opacity:1"
           inkscape:connector-curvature="0" />
      </g>
    </g>
  </g>
</svg>
