<?xml version="1.0" encoding="UTF-8" standalone="no"?>
<!-- Created with Inkscape (http://www.inkscape.org/) -->

<svg
   xmlns:dc="http://purl.org/dc/elements/1.1/"
   xmlns:cc="http://creativecommons.org/ns#"
   xmlns:rdf="http://www.w3.org/1999/02/22-rdf-syntax-ns#"
   xmlns:svg="http://www.w3.org/2000/svg"
   xmlns="http://www.w3.org/2000/svg"
   xmlns:sodipodi="http://sodipodi.sourceforge.net/DTD/sodipodi-0.dtd"
   xmlns:inkscape="http://www.inkscape.org/namespaces/inkscape"
   width="32"
   height="32"
   viewBox="0 0 32 32.000001"
   id="svg4244"
   version="1.1"
   inkscape:version="0.91 r13725"
   sodipodi:docname="33.svg">
  <defs
     id="defs4246" />
  <sodipodi:namedview
     id="base"
     pagecolor="#ffffff"
     bordercolor="#666666"
     borderopacity="1.0"
     inkscape:pageopacity="0.0"
     inkscape:pageshadow="2"
     inkscape:zoom="22.627417"
     inkscape:cx="8.6788232"
     inkscape:cy="7.3065235"
     inkscape:document-units="px"
     inkscape:current-layer="g4783"
     showgrid="true"
     units="px"
     inkscape:window-width="1366"
     inkscape:window-height="705"
     inkscape:window-x="-8"
     inkscape:window-y="-8"
     inkscape:window-maximized="1"
     inkscape:snap-bbox="true"
     inkscape:bbox-paths="true"
     inkscape:bbox-nodes="true"
     inkscape:snap-bbox-edge-midpoints="true"
     inkscape:snap-bbox-midpoints="true">
    <inkscape:grid
       type="xygrid"
       id="grid4252" />
  </sodipodi:namedview>
  <metadata
     id="metadata4249">
    <rdf:RDF>
      <cc:Work
         rdf:about="">
        <dc:format>image/svg+xml</dc:format>
        <dc:type
           rdf:resource="http://purl.org/dc/dcmitype/StillImage" />
        <dc:title></dc:title>
      </cc:Work>
    </rdf:RDF>
  </metadata>
  <g
     inkscape:label="Layer 1"
     inkscape:groupmode="layer"
     id="layer1"
     transform="translate(0,-1020.3622)">
    <g
       id="g4783"
       transform="translate(-4.2590071,-3.0333347)">
      <g
         id="g9395">
        <path
           id="path5852"
           d="m 27.258991,1033.3956 a 6.9999847,6.9999847 0 0 1 -3.499992,6.0622 6.9999847,6.9999847 0 0 1 -6.999985,0 6.9999847,6.9999847 0 0 1 -3.499992,-6.0622 l 6.999985,0 z"
           style="fill:#c7c6ce;fill-opacity:1;stroke:none;stroke-width:1;stroke-linecap:round;stroke-linejoin:round;stroke-opacity:1"
           inkscape:connector-curvature="0" />
        <path
           id="rect5854"
           d="m 14.259025,1026.3956 11.999965,0 c 0.55401,0 1.000017,0.446 1.000017,1 l 0,6 c 0,0.554 -0.446007,1 -1.000017,1 l -11.999965,0 c -0.55401,0 -1.000018,-0.446 -1.000018,-1 l 0,-6 c 0,-0.554 0.446008,-1 1.000018,-1 z"
           style="fill:#c7c6ce;fill-opacity:1;stroke:none;stroke-width:1;stroke-linecap:round;stroke-linejoin:round;stroke-opacity:1"
           inkscape:connector-curvature="0" />
        <path
           id="rect5866"
           d="m 19.259007,1037.3956 2,0 0,15 -2,0 z"
           style="fill:#c7c6ce;fill-opacity:1;stroke:none;stroke-width:1;stroke-linecap:round;stroke-linejoin:round;stroke-opacity:1"
           inkscape:connector-curvature="0" />
        <path
           sodipodi:nodetypes="sccssssss"
           inkscape:connector-curvature="0"
           id="path5868"
           d="m 15.59224,1052.0623 4.000089,-0.6667 1.333356,0 4.000089,0.6667 c 0.36453,0.061 0.666655,0.2973 0.666655,0.6667 0,0.3693 -0.297327,0.6665 -0.666655,0.6665 l -9.333534,0 c -0.369327,0 -0.666655,-0.2972 -0.666655,-0.6665 0,-0.3694 0.290944,-0.5915 0.666655,-0.6667 z"
           style="fill:#c7c6ce;fill-opacity:1;stroke:none;stroke-width:1;stroke-linecap:round;stroke-linejoin:round;stroke-opacity:1" />
        <path
           id="path5883"
           d="m 26.258993,1033.3956 a 5.9999866,5.9999866 0 0 1 -2.999993,5.1962 5.9999866,5.9999866 0 0 1 -5.999987,0 5.9999866,5.9999866 0 0 1 -2.999993,-5.1962 l 5.999987,0 z"
           style="fill:#ffffff;fill-opacity:1;stroke:none;stroke-width:1;stroke-linecap:round;stroke-linejoin:round;stroke-opacity:1"
           inkscape:connector-curvature="0" />
        <path
           id="rect5885"
           d="m 15.116165,1027.3956 10.285685,0 c 0.474865,0 0.857157,0.3823 0.857157,0.8572 l 0,5.1428 c 0,0.4749 -0.382292,0.8572 -0.857157,0.8572 l -10.285685,0 c -0.474865,0 -0.857158,-0.3823 -0.857158,-0.8572 l 0,-5.1428 c 0,-0.4749 0.382293,-0.8572 0.857158,-0.8572 z"
           style="fill:#ffffff;fill-opacity:1;stroke:none;stroke-width:1;stroke-linecap:round;stroke-linejoin:round;stroke-opacity:1"
           inkscape:connector-curvature="0" />
        <path
           id="path5893"
           d="m 26.258993,1033.3956 a 5.9999866,5.9999866 0 0 1 -2.999993,5.1962 5.9999866,5.9999866 0 0 1 -5.999987,0 5.9999866,5.9999866 0 0 1 -2.999993,-5.1962 l 5.999987,0 z"
           style="fill:#e6001f;fill-opacity:1;stroke:none;stroke-width:1;stroke-linecap:round;stroke-linejoin:round;stroke-opacity:1"
           inkscape:connector-curvature="0" />
        <path
           sodipodi:nodetypes="cccsssscc"
           inkscape:connector-curvature="0"
           id="rect5895"
           d="m 15.259024,1031.3956 9.999966,0 1.000017,0 0,1.9999 c 0,0.5541 -0.446008,1.0001 -1.000017,1.0001 l -9.999966,0 c -0.554009,0 -1.000017,-0.446 -1.000017,-1.0001 l 0,-1.9999 z"
           style="fill:#e6001f;fill-opacity:1;stroke:none;stroke-width:1;stroke-linecap:round;stroke-linejoin:round;stroke-opacity:1" />
        <path
           inkscape:connector-curvature="0"
           id="path5900"
           d="m 15.751953,1029.0312 a 0.50005,0.50005 0 0 0 -0.492187,0.5079 l 0,3.8574 c -6.3e-5,1.7856 0.953637,3.4372 2.5,4.3301 0.773145,0.4463 1.636832,0.6699 2.5,0.6699 a 0.50005,0.50005 0 1 0 0,-1 c -0.690695,0 -1.380828,-0.1797 -2,-0.5371 -1.238366,-0.715 -2.00005,-2.0329 -2,-3.4629 l 0,-3.8574 a 0.50005,0.50005 0 0 0 -0.507813,-0.5079 z"
           style="color:#000000;font-style:normal;font-variant:normal;font-weight:normal;font-stretch:normal;font-size:medium;line-height:normal;font-family:sans-serif;text-indent:0;text-align:start;text-decoration:none;text-decoration-line:none;text-decoration-style:solid;text-decoration-color:#000000;letter-spacing:normal;word-spacing:normal;text-transform:none;direction:ltr;block-progression:tb;writing-mode:lr-tb;baseline-shift:baseline;text-anchor:start;white-space:normal;clip-rule:nonzero;display:inline;overflow:visible;visibility:visible;opacity:1;isolation:auto;mix-blend-mode:normal;color-interpolation:sRGB;color-interpolation-filters:linearRGB;solid-color:#000000;solid-opacity:1;fill:#8b8891;fill-opacity:1;fill-rule:nonzero;stroke:none;stroke-width:1;stroke-linecap:round;stroke-linejoin:round;stroke-miterlimit:4;stroke-dasharray:none;stroke-dashoffset:0;stroke-opacity:1;color-rendering:auto;image-rendering:auto;shape-rendering:auto;text-rendering:auto;enable-background:accumulate" />
        <path
           id="path5905"
           d="m 25.259007,1032.8956 a 0.5,0.5 0 0 1 -0.5,0.5 0.5,0.5 0 0 1 -0.5,-0.5 0.5,0.5 0 0 1 0.5,-0.5 0.5,0.5 0 0 1 0.5,0.5 z"
           style="fill:#990012;fill-opacity:1;stroke:none;stroke-width:1;stroke-linecap:round;stroke-linejoin:round;stroke-opacity:1"
           inkscape:connector-curvature="0" />
        <path
           id="circle5907"
           d="m 18.259007,1034.8956 a 0.5,0.5 0 0 1 -0.5,0.5 0.5,0.5 0 0 1 -0.5,-0.5 0.5,0.5 0 0 1 0.5,-0.5 0.5,0.5 0 0 1 0.5,0.5 z"
           style="fill:#990012;fill-opacity:1;stroke:none;stroke-width:1;stroke-linecap:round;stroke-linejoin:round;stroke-opacity:1"
           inkscape:connector-curvature="0" />
        <path
           id="circle5909"
           d="m 20.759007,1032.8956 a 0.5,0.5 0 0 1 -0.5,0.5 0.5,0.5 0 0 1 -0.5,-0.5 0.5,0.5 0 0 1 0.5,-0.5 0.5,0.5 0 0 1 0.5,0.5 z"
           style="fill:#990012;fill-opacity:1;stroke:none;stroke-width:1;stroke-linecap:round;stroke-linejoin:round;stroke-opacity:1"
           inkscape:connector-curvature="0" />
        <path
           id="circle5913"
           d="m 23.259007,1037.8956 a 0.5,0.5 0 0 1 -0.5,0.5 0.5,0.5 0 0 1 -0.5,-0.5 0.5,0.5 0 0 1 0.5,-0.5 0.5,0.5 0 0 1 0.5,0.5 z"
           style="fill:#990012;fill-opacity:1;stroke:none;stroke-width:1;stroke-linecap:round;stroke-linejoin:round;stroke-opacity:1"
           inkscape:connector-curvature="0" />
        <path
           id="circle5915"
           d="m 22.259007,1035.3956 a 0.5,0.5 0 0 1 -0.5,0.5 0.5,0.5 0 0 1 -0.5,-0.5 0.5,0.5 0 0 1 0.5,-0.5 0.5,0.5 0 0 1 0.5,0.5 z"
           style="fill:#990012;fill-opacity:1;stroke:none;stroke-width:1;stroke-linecap:round;stroke-linejoin:round;stroke-opacity:1"
           inkscape:connector-curvature="0" />
      </g>
    </g>
  </g>
</svg>
