<?xml version="1.0" encoding="UTF-8" standalone="no"?>
<!-- Created with Inkscape (http://www.inkscape.org/) -->

<svg
   xmlns:dc="http://purl.org/dc/elements/1.1/"
   xmlns:cc="http://creativecommons.org/ns#"
   xmlns:rdf="http://www.w3.org/1999/02/22-rdf-syntax-ns#"
   xmlns:svg="http://www.w3.org/2000/svg"
   xmlns="http://www.w3.org/2000/svg"
   xmlns:sodipodi="http://sodipodi.sourceforge.net/DTD/sodipodi-0.dtd"
   xmlns:inkscape="http://www.inkscape.org/namespaces/inkscape"
   width="32"
   height="32"
   viewBox="0 0 32 32.000001"
   id="svg4244"
   version="1.1"
   inkscape:version="0.91 r13725"
   sodipodi:docname="25.svg">
  <defs
     id="defs4246" />
  <sodipodi:namedview
     id="base"
     pagecolor="#ffffff"
     bordercolor="#666666"
     borderopacity="1.0"
     inkscape:pageopacity="0.0"
     inkscape:pageshadow="2"
     inkscape:zoom="4"
     inkscape:cx="-7.403004"
     inkscape:cy="-17.081054"
     inkscape:document-units="px"
     inkscape:current-layer="g4783"
     showgrid="true"
     units="px"
     inkscape:window-width="1366"
     inkscape:window-height="705"
     inkscape:window-x="-8"
     inkscape:window-y="-8"
     inkscape:window-maximized="1"
     inkscape:snap-bbox="true"
     inkscape:bbox-paths="true"
     inkscape:bbox-nodes="true"
     inkscape:snap-bbox-edge-midpoints="true"
     inkscape:snap-bbox-midpoints="true">
    <inkscape:grid
       type="xygrid"
       id="grid4252" />
  </sodipodi:namedview>
  <metadata
     id="metadata4249">
    <rdf:RDF>
      <cc:Work
         rdf:about="">
        <dc:format>image/svg+xml</dc:format>
        <dc:type
           rdf:resource="http://purl.org/dc/dcmitype/StillImage" />
        <dc:title></dc:title>
      </cc:Work>
    </rdf:RDF>
  </metadata>
  <g
     inkscape:label="Layer 1"
     inkscape:groupmode="layer"
     id="layer1"
     transform="translate(0,-1020.3622)">
    <g
       id="g4783"
       transform="translate(-4.2590071,-3.0333347)">
      <g
         id="g8184">
        <path
           sodipodi:nodetypes="cccccccccccccccc"
           inkscape:connector-curvature="0"
           id="path5948"
           d="m 5.2591969,1052.0799 c 1.7536477,-1.0118 3.7531326,-0.8723 4.5277406,0.3156 0.1680646,-0.8515 0.6952035,-1.5894 1.4464705,-2.0245 1.178128,-0.6803 2.666272,-0.4844 3.630641,0.475 0.491712,-0.8258 1.18604,-1.5128 2.017097,-1.9957 0.79631,-0.4598 1.69358,-0.7163 2.612377,-0.7501 l 0.01513,-0.041 c -0.900903,-1.0193 -0.681416,-2.4784 -0.259944,-4.056 -1.575318,-0.4209 -2.123089,-0.5814 -3.381276,-2.2539 l -0.04541,-0.012 c -0.488371,0.7792 -1.159486,1.4274 -1.955105,1.8884 -0.833582,0.4812 -1.776884,0.7399 -2.739264,0.7539 0.34684,1.3129 -0.227048,2.6956 -1.4015919,3.3769 -0.7533426,0.4349 -1.658701,0.5205 -2.4814152,0.2381 0.6445672,1.2641 -0.2321643,3.0668 -1.9856423,4.0812 z"
           style="fill:#00c379;fill-opacity:1;stroke:none;stroke-width:2;stroke-linecap:round;stroke-linejoin:round;stroke-opacity:1" />
        <path
           id="path5981"
           d="m 15.821507,1041.7373 c -0.488371,0.7792 -1.15946,1.4276 -1.955078,1.8886 -0.478341,0.2762 -0.993873,0.4703 -1.527344,0.5957 -0.04617,0.2571 -0.08008,0.5193 -0.08008,0.7891 -6e-6,2.2371 1.661881,4.0904 3.808594,4.4277 0.254902,-0.2166 0.523103,-0.4186 0.814453,-0.5879 0.79631,-0.4598 1.692531,-0.7162 2.611328,-0.75 l 0.01563,-0.041 c -0.433794,-0.4908 -0.6043,-1.0852 -0.621094,-1.7441 -0.436929,0.7168 -1.218581,1.1953 -2.128906,1.1953 -1.392554,0 -2.500004,-1.1074 -2.5,-2.5 -4e-6,-1.3121 0.987031,-2.3587 2.265625,-2.4766 -0.205562,-0.2253 -0.409012,-0.4565 -0.65625,-0.7851 l -0.04687,-0.012 z m 3.189453,2.1972 c 0.06501,0.1374 0.11681,0.2814 0.15625,0.4317 0.03015,-0.1223 0.04894,-0.2395 0.08203,-0.3633 -0.09231,-0.025 -0.152676,-0.045 -0.238281,-0.068 z"
           style="fill:#00a654;fill-opacity:1;stroke:none;stroke-width:2;stroke-linecap:round;stroke-linejoin:round;stroke-opacity:1"
           inkscape:connector-curvature="0" />
        <path
           sodipodi:nodetypes="cccccccccccccccc"
           inkscape:connector-curvature="0"
           id="path5923"
           d="m 20.256931,1027.0113 c 6.92e-4,2.0245 1.121192,3.6864 2.537307,3.7632 -0.653538,0.5714 -1.029,1.397 -1.030154,2.265 0,1.3604 0.913616,2.5513 2.226808,2.9067 -0.4695,0.8388 -0.717231,1.7836 -0.719885,2.7448 0,0.9195 0.2265,1.8248 0.656539,2.6374 l -0.0277,0.033 c -1.333154,-0.2706 -2.487,0.649 -3.642576,1.8029 -1.152116,-1.1539 -1.564962,-1.548 -3.642462,-1.8014 l -0.02884,-0.035 c 0.430615,-0.8126 0.656423,-1.7178 0.657808,-2.6373 0,-0.9626 -0.247616,-1.9089 -0.716654,-2.7493 1.310423,-0.3562 2.220923,-1.5445 2.223692,-2.9023 0,-0.8699 -0.378577,-1.6967 -1.034538,-2.268 1.417038,-0.074 2.539846,-1.7344 2.541692,-3.7603 z"
           style="fill:#00c379;fill-opacity:1;stroke:none;stroke-width:2;stroke-linecap:round;stroke-linejoin:round;stroke-opacity:1" />
        <path
           id="path5977"
           d="m 20.259007,1036.0107 c -1.240208,0 -2.367222,0.5102 -3.183594,1.3301 0.10893,0.4403 0.167969,0.8924 0.167969,1.3496 -0.0014,0.9195 -0.227588,1.8241 -0.658203,2.6367 l 0.0293,0.035 c 0.591642,0.072 1.038866,0.1602 1.416015,0.2695 -0.168661,-0.3378 -0.271488,-0.7141 -0.271487,-1.1211 -3e-6,-1.3925 1.107446,-2.5 2.5,-2.5 1.392554,0 2.500003,1.1075 2.5,2.5 1e-6,0.3446 -0.07017,0.6695 -0.193359,0.9668 0.428323,-0.154 0.869831,-0.2094 1.333984,-0.1152 l 0.02734,-0.033 c -0.430039,-0.8126 -0.65625,-1.7192 -0.65625,-2.6387 0.0013,-0.4572 0.06222,-0.9095 0.171875,-1.3496 -0.816368,-0.8199 -1.943382,-1.3301 -3.18359,-1.3301 z m -0.181641,6.9824 c 0.06307,0.063 0.112003,0.1041 0.179688,0.1719 0.06162,-0.062 0.12391,-0.1118 0.185547,-0.1719 -0.06167,0 -0.120688,0.018 -0.183594,0.018 -0.06224,0 -0.12061,-0.013 -0.181641,-0.018 z"
           style="fill:#00a654;fill-opacity:1;stroke:none;stroke-width:2;stroke-linecap:round;stroke-linejoin:round;stroke-opacity:1"
           inkscape:connector-curvature="0" />
        <path
           style="fill:#00c379;fill-opacity:1;stroke:none;stroke-width:2;stroke-linecap:round;stroke-linejoin:round;stroke-opacity:1"
           d="m 35.258817,1052.0799 c -1.753646,-1.0118 -3.753131,-0.8723 -4.52774,0.3156 -0.168064,-0.8515 -0.695204,-1.5894 -1.44647,-2.0245 -1.178128,-0.6803 -2.666273,-0.4844 -3.630641,0.475 -0.491712,-0.8258 -1.18604,-1.5128 -2.017097,-1.9957 -0.79631,-0.4598 -1.69358,-0.7163 -2.612377,-0.7501 l -0.01513,-0.041 c 0.900903,-1.0193 0.681416,-2.4784 0.259944,-4.056 1.575318,-0.4209 2.123089,-0.5814 3.381276,-2.2539 l 0.04541,-0.012 c 0.488371,0.7792 1.159486,1.4274 1.955104,1.8884 0.833583,0.4812 1.776884,0.7399 2.739265,0.7539 -0.346841,1.3129 0.227047,2.6956 1.401591,3.3769 0.753343,0.4349 1.658701,0.5205 2.481416,0.2381 -0.644567,1.2641 0.232163,3.0668 1.985642,4.0812 z"
           id="path5946"
           inkscape:connector-curvature="0"
           sodipodi:nodetypes="cccccccccccccccc" />
        <path
           id="circle5931"
           d="m 23.759006,1040.5107 a 3.4999914,3.4999914 0 0 1 -3.499992,3.5 3.4999914,3.4999914 0 0 1 -3.499991,-3.5 3.4999914,3.4999914 0 0 1 3.499991,-3.4999 3.4999914,3.4999914 0 0 1 3.499992,3.4999 z"
           style="fill:#e6001f;fill-opacity:1;stroke:none;stroke-width:2;stroke-linecap:round;stroke-linejoin:round;stroke-opacity:1" />
        <path
           id="path5979"
           d="m 24.696507,1041.7373 -0.04687,0.012 c -0.483121,0.6422 -0.860396,1.0607 -1.232422,1.3574 1.065548,0.2865 1.8418,1.2415 1.841797,2.4043 3e-6,1.3926 -1.107446,2.5 -2.5,2.5 -0.532303,0 -1.020771,-0.1637 -1.423828,-0.4414 -0.08783,0.1716 -0.191,0.3373 -0.326172,0.4902 l 0.01563,0.041 c 0.918797,0.034 1.815018,0.2902 2.611328,0.75 0.358453,0.2083 0.685989,0.4613 0.988281,0.7403 1.547374,-0.714 2.63476,-2.273 2.634756,-4.0801 2e-6,-0.6255 -0.131572,-1.2228 -0.365234,-1.7656 -0.0801,-0.041 -0.163944,-0.074 -0.242188,-0.1192 -0.795618,-0.461 -1.466707,-1.1094 -1.955078,-1.8886 z"
           style="fill:#00a654;fill-opacity:1;stroke:none;stroke-width:2;stroke-linecap:round;stroke-linejoin:round;stroke-opacity:1"
           inkscape:connector-curvature="0" />
        <path
           id="circle5961"
           d="m 22.759007,1041.0107 c -1.802874,0 -3.357919,1.0814 -4.074219,2.623 a 3.4999914,3.4999914 0 0 0 1.574219,0.377 3.4999914,3.4999914 0 0 0 0.539062,-0.045 c 0.444263,-0.5659 1.122938,-0.9313 1.902344,-0.9492 a 3.4999914,3.4999914 0 0 0 1.001953,-1.9024 c -0.304662,-0.066 -0.619877,-0.1035 -0.943359,-0.1035 z"
           style="color:#000000;font-style:normal;font-variant:normal;font-weight:normal;font-stretch:normal;font-size:medium;line-height:normal;font-family:sans-serif;text-indent:0;text-align:start;text-decoration:none;text-decoration-line:none;text-decoration-style:solid;text-decoration-color:#000000;letter-spacing:normal;word-spacing:normal;text-transform:none;direction:ltr;block-progression:tb;writing-mode:lr-tb;baseline-shift:baseline;text-anchor:start;white-space:normal;clip-rule:nonzero;display:inline;overflow:visible;visibility:visible;opacity:1;isolation:auto;mix-blend-mode:normal;color-interpolation:sRGB;color-interpolation-filters:linearRGB;solid-color:#000000;solid-opacity:1;fill:#990012;fill-opacity:1;fill-rule:nonzero;stroke:none;stroke-width:2;stroke-linecap:round;stroke-linejoin:round;stroke-miterlimit:4;stroke-dasharray:none;stroke-dashoffset:0;stroke-opacity:1;color-rendering:auto;image-rendering:auto;shape-rendering:auto;text-rendering:auto;enable-background:accumulate"
           inkscape:connector-curvature="0" />
        <path
           id="circle5953"
           d="m 16.759007,1040.5107 a 3.4999914,3.4999914 0 0 0 0.712891,2.1113 c 0.612229,0.1797 1.117939,0.5805 1.433593,1.1172 a 3.4999914,3.4999914 0 0 0 1.353516,0.2715 3.4999914,3.4999914 0 0 0 0.845703,-0.1074 c -0.498911,-1.9408 -2.255777,-3.3926 -4.345703,-3.3926 z"
           style="color:#000000;font-style:normal;font-variant:normal;font-weight:normal;font-stretch:normal;font-size:medium;line-height:normal;font-family:sans-serif;text-indent:0;text-align:start;text-decoration:none;text-decoration-line:none;text-decoration-style:solid;text-decoration-color:#000000;letter-spacing:normal;word-spacing:normal;text-transform:none;direction:ltr;block-progression:tb;writing-mode:lr-tb;baseline-shift:baseline;text-anchor:start;white-space:normal;clip-rule:nonzero;display:inline;overflow:visible;visibility:visible;opacity:1;isolation:auto;mix-blend-mode:normal;color-interpolation:sRGB;color-interpolation-filters:linearRGB;solid-color:#000000;solid-opacity:1;fill:#990012;fill-opacity:1;fill-rule:nonzero;stroke:none;stroke-width:2;stroke-linecap:round;stroke-linejoin:round;stroke-miterlimit:4;stroke-dasharray:none;stroke-dashoffset:0;stroke-opacity:1;color-rendering:auto;image-rendering:auto;shape-rendering:auto;text-rendering:auto;enable-background:accumulate"
           inkscape:connector-curvature="0" />
        <path
           id="path5927"
           d="m 20.258998,1045.0107 a 3.4999914,3.4999914 0 0 1 -3.499991,3.5 3.4999914,3.4999914 0 0 1 -3.499992,-3.5 3.4999914,3.4999914 0 0 1 3.499992,-3.4999 3.4999914,3.4999914 0 0 1 3.499991,3.4999 z"
           style="fill:#e6001f;fill-opacity:1;stroke:none;stroke-width:2;stroke-linecap:round;stroke-linejoin:round;stroke-opacity:1" />
        <path
           id="circle5969"
           d="m 19.327366,1042.6396 c -0.656541,0.7826 -1.068362,1.7768 -1.068359,2.8711 -2e-6,0.8297 0.244208,1.5981 0.640625,2.2676 a 3.4999914,3.4999914 0 0 0 1.359375,-2.7676 3.4999914,3.4999914 0 0 0 -0.931641,-2.3711 z"
           style="color:#000000;font-style:normal;font-variant:normal;font-weight:normal;font-stretch:normal;font-size:medium;line-height:normal;font-family:sans-serif;text-indent:0;text-align:start;text-decoration:none;text-decoration-line:none;text-decoration-style:solid;text-decoration-color:#000000;letter-spacing:normal;word-spacing:normal;text-transform:none;direction:ltr;block-progression:tb;writing-mode:lr-tb;baseline-shift:baseline;text-anchor:start;white-space:normal;clip-rule:nonzero;display:inline;overflow:visible;visibility:visible;opacity:1;isolation:auto;mix-blend-mode:normal;color-interpolation:sRGB;color-interpolation-filters:linearRGB;solid-color:#000000;solid-opacity:1;fill:#990012;fill-opacity:1;fill-rule:nonzero;stroke:none;stroke-width:2;stroke-linecap:round;stroke-linejoin:round;stroke-miterlimit:4;stroke-dasharray:none;stroke-dashoffset:0;stroke-opacity:1;color-rendering:auto;image-rendering:auto;shape-rendering:auto;text-rendering:auto;enable-background:accumulate"
           inkscape:connector-curvature="0" />
        <path
           id="circle5929"
           d="m 26.259006,1045.5107 a 3.4999914,3.4999914 0 0 1 -3.499992,3.5 3.4999914,3.4999914 0 0 1 -3.499991,-3.5 3.4999914,3.4999914 0 0 1 3.499991,-3.4999 3.4999914,3.4999914 0 0 1 3.499992,3.4999 z"
           style="fill:#e6001f;fill-opacity:1;stroke:none;stroke-width:2;stroke-linecap:round;stroke-linejoin:round;stroke-opacity:1" />
        <path
           id="path6001"
           d="m 287.50497,1002.5674 a 1,0.5 0 0 1 -1,0.5 1,0.5 0 0 1 -1,-0.5 1,0.5 0 0 1 1,-0.5 1,0.5 0 0 1 1,0.5 z"
           style="fill:#990012;fill-opacity:1;stroke:none;stroke-width:2;stroke-linecap:round;stroke-linejoin:round;stroke-opacity:1"
           transform="matrix(0.96592583,0.25881905,-0.25881905,0.96592583,0,0)" />
        <path
           id="ellipse6003"
           d="m 21.25901,1038.0107 a 1,0.5 0 0 1 -1,0.5 1,0.5 0 0 1 -1,-0.5 1,0.5 0 0 1 1,-0.5 1,0.5 0 0 1 1,0.5 z"
           style="fill:#990012;fill-opacity:1;stroke:none;stroke-width:2;stroke-linecap:round;stroke-linejoin:round;stroke-opacity:1" />
        <path
           id="ellipse6005"
           d="m 249.54294,1013.6753 a 1,0.5 0 0 1 -1,0.5 1,0.5 0 0 1 -1,-0.5 1,0.5 0 0 1 1,-0.5 1,0.5 0 0 1 1,0.5 z"
           style="fill:#990012;fill-opacity:1;stroke:none;stroke-width:2;stroke-linecap:round;stroke-linejoin:round;stroke-opacity:1"
           transform="matrix(-0.96592583,0.25881905,0.25881905,0.96592583,0,0)" />
        <path
           inkscape:connector-curvature="0"
           id="circle6007"
           d="m 18.480469,1038.2383 a 0.50004991,0.50004991 0 0 0 -0.34375,0.1504 c -0.372348,0.3723 -0.639097,0.837 -0.775391,1.3457 a 0.50028924,0.50028924 0 1 0 0.966797,0.2578 c 0.09087,-0.3391 0.269316,-0.6482 0.517578,-0.8965 a 0.50004991,0.50004991 0 0 0 -0.365234,-0.8574 z"
           style="color:#000000;font-style:normal;font-variant:normal;font-weight:normal;font-stretch:normal;font-size:medium;line-height:normal;font-family:sans-serif;text-indent:0;text-align:start;text-decoration:none;text-decoration-line:none;text-decoration-style:solid;text-decoration-color:#000000;letter-spacing:normal;word-spacing:normal;text-transform:none;direction:ltr;block-progression:tb;writing-mode:lr-tb;baseline-shift:baseline;text-anchor:start;white-space:normal;clip-rule:nonzero;display:inline;overflow:visible;visibility:visible;opacity:1;isolation:auto;mix-blend-mode:normal;color-interpolation:sRGB;color-interpolation-filters:linearRGB;solid-color:#000000;solid-opacity:1;fill:#ff3d62;fill-opacity:1;fill-rule:nonzero;stroke:none;stroke-width:0.99999982;stroke-linecap:round;stroke-linejoin:round;stroke-miterlimit:4;stroke-dasharray:none;stroke-dashoffset:0;stroke-opacity:1;color-rendering:auto;image-rendering:auto;shape-rendering:auto;text-rendering:auto;enable-background:accumulate" />
        <path
           inkscape:connector-curvature="0"
           id="circle6009"
           d="m 14.927734,1042.7812 a 0.50005,0.50005 0 0 0 -0.339843,0.1602 c -1.119986,1.1751 -1.099019,3.0435 0.04883,4.1914 a 0.50062644,0.50062644 0 1 0 0.708984,-0.707 c -0.771703,-0.7717 -0.788128,-2.0049 -0.03516,-2.7949 a 0.50005,0.50005 0 0 0 -0.382813,-0.8497 z"
           style="color:#000000;font-style:normal;font-variant:normal;font-weight:normal;font-stretch:normal;font-size:medium;line-height:normal;font-family:sans-serif;text-indent:0;text-align:start;text-decoration:none;text-decoration-line:none;text-decoration-style:solid;text-decoration-color:#000000;letter-spacing:normal;word-spacing:normal;text-transform:none;direction:ltr;block-progression:tb;writing-mode:lr-tb;baseline-shift:baseline;text-anchor:start;white-space:normal;clip-rule:nonzero;display:inline;overflow:visible;visibility:visible;opacity:1;isolation:auto;mix-blend-mode:normal;color-interpolation:sRGB;color-interpolation-filters:linearRGB;solid-color:#000000;solid-opacity:1;fill:#ff3d62;fill-opacity:1;fill-rule:nonzero;stroke:none;stroke-width:1;stroke-linecap:round;stroke-linejoin:round;stroke-miterlimit:4;stroke-dasharray:none;stroke-dashoffset:0;stroke-opacity:1;color-rendering:auto;image-rendering:auto;shape-rendering:auto;text-rendering:auto;enable-background:accumulate" />
        <path
           inkscape:connector-curvature="0"
           id="circle6011"
           d="m 20.601562,1043.7539 a 0.50005,0.50005 0 0 0 -0.441406,0.2559 c -0.825495,1.4297 -0.330165,3.2741 1.09961,4.0996 a 0.5005087,0.5005087 0 1 0 0.5,-0.8672 c -0.961732,-0.5553 -1.287688,-1.7707 -0.732422,-2.7324 a 0.50005,0.50005 0 0 0 -0.425782,-0.7559 z"
           style="color:#000000;font-style:normal;font-variant:normal;font-weight:normal;font-stretch:normal;font-size:medium;line-height:normal;font-family:sans-serif;text-indent:0;text-align:start;text-decoration:none;text-decoration-line:none;text-decoration-style:solid;text-decoration-color:#000000;letter-spacing:normal;word-spacing:normal;text-transform:none;direction:ltr;block-progression:tb;writing-mode:lr-tb;baseline-shift:baseline;text-anchor:start;white-space:normal;clip-rule:nonzero;display:inline;overflow:visible;visibility:visible;opacity:1;isolation:auto;mix-blend-mode:normal;color-interpolation:sRGB;color-interpolation-filters:linearRGB;solid-color:#000000;solid-opacity:1;fill:#ff3d62;fill-opacity:1;fill-rule:nonzero;stroke:none;stroke-width:1;stroke-linecap:round;stroke-linejoin:round;stroke-miterlimit:4;stroke-dasharray:none;stroke-dashoffset:0;stroke-opacity:1;color-rendering:auto;image-rendering:auto;shape-rendering:auto;text-rendering:auto;enable-background:accumulate" />
        <path
           inkscape:connector-curvature="0"
           id="path6013"
           d="m 16.830078,1040.3457 a 0.50005,0.50005 0 0 1 0.34375,0.1504 c 0.504689,0.5047 0.702311,1.2422 0.517578,1.9316 a 0.50028924,0.50028924 0 0 1 -0.966797,-0.2578 c 0.09268,-0.3458 -0.0046,-0.7136 -0.257812,-0.9668 a 0.50005,0.50005 0 0 1 0.363281,-0.8574 z"
           style="color:#000000;font-style:normal;font-variant:normal;font-weight:normal;font-stretch:normal;font-size:medium;line-height:normal;font-family:sans-serif;text-indent:0;text-align:start;text-decoration:none;text-decoration-line:none;text-decoration-style:solid;text-decoration-color:#000000;letter-spacing:normal;word-spacing:normal;text-transform:none;direction:ltr;block-progression:tb;writing-mode:lr-tb;baseline-shift:baseline;text-anchor:start;white-space:normal;clip-rule:nonzero;display:inline;overflow:visible;visibility:visible;opacity:1;isolation:auto;mix-blend-mode:normal;color-interpolation:sRGB;color-interpolation-filters:linearRGB;solid-color:#000000;solid-opacity:1;fill:#00c379;fill-opacity:1;fill-rule:nonzero;stroke:none;stroke-width:1;stroke-linecap:round;stroke-linejoin:round;stroke-miterlimit:4;stroke-dasharray:none;stroke-dashoffset:0;stroke-opacity:1;color-rendering:auto;image-rendering:auto;shape-rendering:auto;text-rendering:auto;enable-background:accumulate" />
        <path
           inkscape:connector-curvature="0"
           id="path6015"
           d="m 21.940261,1041.2201 a 0.50005,0.50005 0 0 0 -0.293111,0.2342 c -0.356867,0.6181 -0.356874,1.3817 1.7e-5,1.9998 a 0.50030357,0.50030357 0 0 0 0.867108,-0.4993 c -0.179022,-0.31 -0.18024,-0.6905 -0.0012,-1.0006 a 0.50005,0.50005 0 0 0 -0.572813,-0.7341 z"
           style="color:#000000;font-style:normal;font-variant:normal;font-weight:normal;font-stretch:normal;font-size:medium;line-height:normal;font-family:sans-serif;text-indent:0;text-align:start;text-decoration:none;text-decoration-line:none;text-decoration-style:solid;text-decoration-color:#000000;letter-spacing:normal;word-spacing:normal;text-transform:none;direction:ltr;block-progression:tb;writing-mode:lr-tb;baseline-shift:baseline;text-anchor:start;white-space:normal;clip-rule:nonzero;display:inline;overflow:visible;visibility:visible;opacity:1;isolation:auto;mix-blend-mode:normal;color-interpolation:sRGB;color-interpolation-filters:linearRGB;solid-color:#000000;solid-opacity:1;fill:#00c379;fill-opacity:1;fill-rule:nonzero;stroke:none;stroke-width:1;stroke-linecap:round;stroke-linejoin:round;stroke-miterlimit:4;stroke-dasharray:none;stroke-dashoffset:0;stroke-opacity:1;color-rendering:auto;image-rendering:auto;shape-rendering:auto;text-rendering:auto;enable-background:accumulate" />
        <path
           inkscape:connector-curvature="0"
           id="path6017"
           d="m 19.959358,1036.1741 a 0.50005,0.50005 0 0 0 -0.349566,0.3707 c -0.119027,0.4976 -0.04306,1.0225 0.212739,1.4656 a 0.50029069,0.50029069 0 1 0 0.867133,-0.4992 c -0.128018,-0.2218 -0.16713,-0.4845 -0.107583,-0.7336 a 0.50005,0.50005 0 0 0 -0.622723,-0.6035 z"
           style="color:#000000;font-style:normal;font-variant:normal;font-weight:normal;font-stretch:normal;font-size:medium;line-height:normal;font-family:sans-serif;text-indent:0;text-align:start;text-decoration:none;text-decoration-line:none;text-decoration-style:solid;text-decoration-color:#000000;letter-spacing:normal;word-spacing:normal;text-transform:none;direction:ltr;block-progression:tb;writing-mode:lr-tb;baseline-shift:baseline;text-anchor:start;white-space:normal;clip-rule:nonzero;display:inline;overflow:visible;visibility:visible;opacity:1;isolation:auto;mix-blend-mode:normal;color-interpolation:sRGB;color-interpolation-filters:linearRGB;solid-color:#000000;solid-opacity:1;fill:#00c379;fill-opacity:1;fill-rule:nonzero;stroke:none;stroke-width:1;stroke-linecap:round;stroke-linejoin:round;stroke-miterlimit:4;stroke-dasharray:none;stroke-dashoffset:0;stroke-opacity:1;color-rendering:auto;image-rendering:auto;shape-rendering:auto;text-rendering:auto;enable-background:accumulate" />
      </g>
    </g>
  </g>
</svg>
