<?xml version="1.0" encoding="UTF-8" standalone="no"?>
<!-- Created with Inkscape (http://www.inkscape.org/) -->

<svg
   xmlns:dc="http://purl.org/dc/elements/1.1/"
   xmlns:cc="http://creativecommons.org/ns#"
   xmlns:rdf="http://www.w3.org/1999/02/22-rdf-syntax-ns#"
   xmlns:svg="http://www.w3.org/2000/svg"
   xmlns="http://www.w3.org/2000/svg"
   xmlns:sodipodi="http://sodipodi.sourceforge.net/DTD/sodipodi-0.dtd"
   xmlns:inkscape="http://www.inkscape.org/namespaces/inkscape"
   width="32"
   height="32"
   viewBox="0 0 32 32.000001"
   id="svg4244"
   version="1.1"
   inkscape:version="0.91 r13725"
   sodipodi:docname="12.svg">
  <defs
     id="defs4246" />
  <sodipodi:namedview
     id="base"
     pagecolor="#ffffff"
     bordercolor="#666666"
     borderopacity="1.0"
     inkscape:pageopacity="0.0"
     inkscape:pageshadow="2"
     inkscape:zoom="22.4"
     inkscape:cx="11.476759"
     inkscape:cy="21.015549"
     inkscape:document-units="px"
     inkscape:current-layer="g4783"
     showgrid="true"
     units="px"
     inkscape:window-width="1366"
     inkscape:window-height="705"
     inkscape:window-x="-8"
     inkscape:window-y="-8"
     inkscape:window-maximized="1"
     inkscape:snap-bbox="true"
     inkscape:bbox-paths="true"
     inkscape:bbox-nodes="true"
     inkscape:snap-bbox-edge-midpoints="true"
     inkscape:snap-bbox-midpoints="true">
    <inkscape:grid
       type="xygrid"
       id="grid4252" />
  </sodipodi:namedview>
  <metadata
     id="metadata4249">
    <rdf:RDF>
      <cc:Work
         rdf:about="">
        <dc:format>image/svg+xml</dc:format>
        <dc:type
           rdf:resource="http://purl.org/dc/dcmitype/StillImage" />
        <dc:title></dc:title>
      </cc:Work>
    </rdf:RDF>
  </metadata>
  <g
     inkscape:label="Layer 1"
     inkscape:groupmode="layer"
     id="layer1"
     transform="translate(0,-1020.3622)">
    <g
       id="g4783"
       transform="translate(-4.2590071,-3.0333347)">
      <g
         id="g6457">
        <path
           id="rect3857"
           d="m 17.759007,1030.3955 c 1.385,0 2.5,1.115 2.5,2.5 l 0,7 c 0,1.385 -1.115,2.5 -2.5,2.5 -1.385,0 -2.5,-1.115 -2.5,-2.5 l 0,-7 c 0,-1.385 1.115,-2.5 2.5,-2.5 z"
           style="fill:#e6001f;fill-opacity:1;stroke:none;stroke-width:1;stroke-opacity:1" />
        <path
           id="rect3855"
           d="m 15.259025,1030.3955 4.999965,0 c 0.55401,0 1.000017,0.446 1.000017,1 l 0,1 c 0,0.554 -0.446007,1 -1.000017,1 l -4.999965,0 c -0.55401,0 -1.000018,-0.446 -1.000018,-1 l 0,-1 c 0,-0.554 0.446008,-1 1.000018,-1 z"
           style="fill:#c7c6ce;fill-opacity:1;stroke:none;stroke-width:1;stroke-opacity:1" />
        <path
           id="rect3859"
           d="m 748.19995,720.58807 c 1.385,0 2.5,1.115 2.5,2.5 l 0,4.99997 c 0,1.385 -1.115,2.5 -2.5,2.5 -1.385,0 -2.5,-1.115 -2.5,-2.5 l 0,-4.99997 c 0,-1.385 1.115,-2.5 2.5,-2.5 z"
           style="fill:#e6001f;fill-opacity:1;stroke:none;stroke-width:1;stroke-opacity:1"
           transform="matrix(0.70710678,0.70710678,-0.70710678,0.70710678,0,0)" />
        <path
           id="rect3861"
           d="m 19.585179,1038.4015 c -0.799924,0.056 -1.555469,0.4964 -1.988281,1.2461 -0.6925,1.1994 -0.285383,2.7235 0.914062,3.416 l 0.04883,0.027 0.964844,-0.9648 c 0.550609,-0.5506 0.781412,-1.2899 0.712891,-2.0059 0.0067,-0.075 0.02148,-0.1478 0.02148,-0.2246 l 0,-1.4375 c -0.223818,-0.046 -0.450527,-0.072 -0.673828,-0.057 z"
           style="fill:#c7c6ce;fill-opacity:1;stroke:none;stroke-width:1;stroke-opacity:1"
           inkscape:connector-curvature="0" />
        <path
           inkscape:connector-curvature="0"
           id="path3885"
           d="m 19.251953,1037.6387 a 0.50005,0.50005 0 0 0 -0.492187,0.5078 l 0,0.5 a 0.50005,0.50005 0 1 0 1,0 l 0,-0.5 a 0.50005,0.50005 0 0 0 -0.507813,-0.5078 z"
           style="color:#000000;font-style:normal;font-variant:normal;font-weight:normal;font-stretch:normal;font-size:medium;line-height:normal;font-family:sans-serif;text-indent:0;text-align:start;text-decoration:none;text-decoration-line:none;text-decoration-style:solid;text-decoration-color:#000000;letter-spacing:normal;word-spacing:normal;text-transform:none;direction:ltr;block-progression:tb;writing-mode:lr-tb;baseline-shift:baseline;text-anchor:start;white-space:normal;clip-rule:nonzero;display:inline;overflow:visible;visibility:visible;opacity:1;isolation:auto;mix-blend-mode:normal;color-interpolation:sRGB;color-interpolation-filters:linearRGB;solid-color:#000000;solid-opacity:1;fill:#8b8891;fill-opacity:1;fill-rule:evenodd;stroke:none;stroke-width:1px;stroke-linecap:round;stroke-linejoin:round;stroke-miterlimit:4;stroke-dasharray:none;stroke-dashoffset:0;stroke-opacity:1;color-rendering:auto;image-rendering:auto;shape-rendering:auto;text-rendering:auto;enable-background:accumulate" />
        <path
           inkscape:connector-curvature="0"
           id="path4701"
           d="m 17.355469,1039.1172 a 0.50005,0.50005 0 0 0 -0.263672,0.9375 l 0.433594,0.25 a 0.5005087,0.5005087 0 0 0 0.5,-0.8672 l -0.433594,-0.25 a 0.50005,0.50005 0 0 0 -0.236328,-0.07 z"
           style="color:#000000;font-style:normal;font-variant:normal;font-weight:normal;font-stretch:normal;font-size:medium;line-height:normal;font-family:sans-serif;text-indent:0;text-align:start;text-decoration:none;text-decoration-line:none;text-decoration-style:solid;text-decoration-color:#000000;letter-spacing:normal;word-spacing:normal;text-transform:none;direction:ltr;block-progression:tb;writing-mode:lr-tb;baseline-shift:baseline;text-anchor:start;white-space:normal;clip-rule:nonzero;display:inline;overflow:visible;visibility:visible;opacity:1;isolation:auto;mix-blend-mode:normal;color-interpolation:sRGB;color-interpolation-filters:linearRGB;solid-color:#000000;solid-opacity:1;fill:#8b8891;fill-opacity:1;fill-rule:evenodd;stroke:none;stroke-width:1px;stroke-linecap:round;stroke-linejoin:round;stroke-miterlimit:4;stroke-dasharray:none;stroke-dashoffset:0;stroke-opacity:1;color-rendering:auto;image-rendering:auto;shape-rendering:auto;text-rendering:auto;enable-background:accumulate" />
        <path
           inkscape:connector-curvature="0"
           id="path4706"
           d="m 17.746094,1041.2168 a 0.50005,0.50005 0 0 0 -0.273438,0.07 l -0.43164,0.25 a 0.5005087,0.5005087 0 0 0 0.5,0.8672 l 0.43164,-0.25 a 0.50005,0.50005 0 0 0 -0.226562,-0.9375 z"
           style="color:#000000;font-style:normal;font-variant:normal;font-weight:normal;font-stretch:normal;font-size:medium;line-height:normal;font-family:sans-serif;text-indent:0;text-align:start;text-decoration:none;text-decoration-line:none;text-decoration-style:solid;text-decoration-color:#000000;letter-spacing:normal;word-spacing:normal;text-transform:none;direction:ltr;block-progression:tb;writing-mode:lr-tb;baseline-shift:baseline;text-anchor:start;white-space:normal;clip-rule:nonzero;display:inline;overflow:visible;visibility:visible;opacity:1;isolation:auto;mix-blend-mode:normal;color-interpolation:sRGB;color-interpolation-filters:linearRGB;solid-color:#000000;solid-opacity:1;fill:#8b8891;fill-opacity:1;fill-rule:evenodd;stroke:none;stroke-width:1px;stroke-linecap:round;stroke-linejoin:round;stroke-miterlimit:4;stroke-dasharray:none;stroke-dashoffset:0;stroke-opacity:1;color-rendering:auto;image-rendering:auto;shape-rendering:auto;text-rendering:auto;enable-background:accumulate" />
        <path
           id="rect4710"
           d="m 25.759007,1033.3955 c 1.385,0 2.5,1.115 2.5,2.5 l 0,7 c 0,1.385 -1.115,2.5 -2.5,2.5 -1.385,0 -2.5,-1.115 -2.5,-2.5 l 0,-7 c 0,-1.385 1.115,-2.5 2.5,-2.5 z"
           style="fill:#e6001f;fill-opacity:1;stroke:none;stroke-width:1;stroke-opacity:1" />
        <path
           id="rect4712"
           d="m 23.259024,1033.3955 4.999965,0 c 0.55401,0 1.000018,0.446 1.000018,1 l 0,1 c 0,0.554 -0.446008,1 -1.000018,1 l -4.999965,0 c -0.55401,0 -1.000017,-0.446 -1.000017,-1 l 0,-1 c 0,-0.554 0.446007,-1 1.000017,-1 z"
           style="fill:#c7c6ce;fill-opacity:1;stroke:none;stroke-width:1;stroke-opacity:1" />
        <path
           id="rect4714"
           d="m 755.97809,717.05255 c 1.385,0 2.5,1.115 2.5,2.5 l 0,4.99997 c 0,1.385 -1.115,2.5 -2.5,2.5 -1.385,0 -2.5,-1.115 -2.5,-2.5 l 0,-4.99997 c 0,-1.385 1.115,-2.5 2.5,-2.5 z"
           style="fill:#e6001f;fill-opacity:1;stroke:none;stroke-width:1;stroke-opacity:1"
           transform="matrix(0.70710678,0.70710678,-0.70710678,0.70710678,0,0)" />
        <path
           inkscape:connector-curvature="0"
           style="fill:#c7c6ce;fill-opacity:1;stroke:none;stroke-width:1;stroke-opacity:1"
           d="m 27.585179,1041.4015 c -0.799924,0.056 -1.555469,0.4964 -1.988281,1.2461 -0.6925,1.1994 -0.285383,2.7235 0.914062,3.416 l 0.04883,0.027 0.964844,-0.9648 c 0.550609,-0.5506 0.781412,-1.2899 0.712891,-2.0059 0.0067,-0.075 0.02148,-0.1478 0.02148,-0.2246 l 0,-1.4375 c -0.223818,-0.046 -0.450527,-0.072 -0.673828,-0.057 z"
           id="path4716" />
        <path
           inkscape:connector-curvature="0"
           id="path4718"
           d="m 27.251953,1040.6387 a 0.50005,0.50005 0 0 0 -0.492187,0.5078 l 0,0.5 a 0.50005,0.50005 0 1 0 1,0 l 0,-0.5 a 0.50005,0.50005 0 0 0 -0.507813,-0.5078 z"
           style="color:#000000;font-style:normal;font-variant:normal;font-weight:normal;font-stretch:normal;font-size:medium;line-height:normal;font-family:sans-serif;text-indent:0;text-align:start;text-decoration:none;text-decoration-line:none;text-decoration-style:solid;text-decoration-color:#000000;letter-spacing:normal;word-spacing:normal;text-transform:none;direction:ltr;block-progression:tb;writing-mode:lr-tb;baseline-shift:baseline;text-anchor:start;white-space:normal;clip-rule:nonzero;display:inline;overflow:visible;visibility:visible;opacity:1;isolation:auto;mix-blend-mode:normal;color-interpolation:sRGB;color-interpolation-filters:linearRGB;solid-color:#000000;solid-opacity:1;fill:#8b8891;fill-opacity:1;fill-rule:evenodd;stroke:none;stroke-width:1px;stroke-linecap:round;stroke-linejoin:round;stroke-miterlimit:4;stroke-dasharray:none;stroke-dashoffset:0;stroke-opacity:1;color-rendering:auto;image-rendering:auto;shape-rendering:auto;text-rendering:auto;enable-background:accumulate" />
        <path
           inkscape:connector-curvature="0"
           id="path4720"
           d="m 25.355469,1042.1172 a 0.50005,0.50005 0 0 0 -0.263672,0.9375 l 0.433594,0.25 a 0.5005087,0.5005087 0 0 0 0.5,-0.8672 l -0.433594,-0.25 a 0.50005,0.50005 0 0 0 -0.236328,-0.07 z"
           style="color:#000000;font-style:normal;font-variant:normal;font-weight:normal;font-stretch:normal;font-size:medium;line-height:normal;font-family:sans-serif;text-indent:0;text-align:start;text-decoration:none;text-decoration-line:none;text-decoration-style:solid;text-decoration-color:#000000;letter-spacing:normal;word-spacing:normal;text-transform:none;direction:ltr;block-progression:tb;writing-mode:lr-tb;baseline-shift:baseline;text-anchor:start;white-space:normal;clip-rule:nonzero;display:inline;overflow:visible;visibility:visible;opacity:1;isolation:auto;mix-blend-mode:normal;color-interpolation:sRGB;color-interpolation-filters:linearRGB;solid-color:#000000;solid-opacity:1;fill:#8b8891;fill-opacity:1;fill-rule:evenodd;stroke:none;stroke-width:1px;stroke-linecap:round;stroke-linejoin:round;stroke-miterlimit:4;stroke-dasharray:none;stroke-dashoffset:0;stroke-opacity:1;color-rendering:auto;image-rendering:auto;shape-rendering:auto;text-rendering:auto;enable-background:accumulate" />
        <path
           inkscape:connector-curvature="0"
           id="path4722"
           d="m 25.746094,1044.2168 a 0.50005,0.50005 0 0 0 -0.273438,0.07 l -0.43164,0.25 a 0.5005087,0.5005087 0 0 0 0.5,0.8672 l 0.43164,-0.25 a 0.50005,0.50005 0 0 0 -0.226562,-0.9375 z"
           style="color:#000000;font-style:normal;font-variant:normal;font-weight:normal;font-stretch:normal;font-size:medium;line-height:normal;font-family:sans-serif;text-indent:0;text-align:start;text-decoration:none;text-decoration-line:none;text-decoration-style:solid;text-decoration-color:#000000;letter-spacing:normal;word-spacing:normal;text-transform:none;direction:ltr;block-progression:tb;writing-mode:lr-tb;baseline-shift:baseline;text-anchor:start;white-space:normal;clip-rule:nonzero;display:inline;overflow:visible;visibility:visible;opacity:1;isolation:auto;mix-blend-mode:normal;color-interpolation:sRGB;color-interpolation-filters:linearRGB;solid-color:#000000;solid-opacity:1;fill:#8b8891;fill-opacity:1;fill-rule:evenodd;stroke:none;stroke-width:1px;stroke-linecap:round;stroke-linejoin:round;stroke-miterlimit:4;stroke-dasharray:none;stroke-dashoffset:0;stroke-opacity:1;color-rendering:auto;image-rendering:auto;shape-rendering:auto;text-rendering:auto;enable-background:accumulate" />
      </g>
    </g>
  </g>
</svg>
