<?xml version="1.0" encoding="UTF-8" standalone="no"?>
<!-- Created with Inkscape (http://www.inkscape.org/) -->

<svg
   xmlns:dc="http://purl.org/dc/elements/1.1/"
   xmlns:cc="http://creativecommons.org/ns#"
   xmlns:rdf="http://www.w3.org/1999/02/22-rdf-syntax-ns#"
   xmlns:svg="http://www.w3.org/2000/svg"
   xmlns="http://www.w3.org/2000/svg"
   xmlns:sodipodi="http://sodipodi.sourceforge.net/DTD/sodipodi-0.dtd"
   xmlns:inkscape="http://www.inkscape.org/namespaces/inkscape"
   width="32"
   height="32"
   viewBox="0 0 32 32.000001"
   id="svg4244"
   version="1.1"
   inkscape:version="0.91 r13725"
   sodipodi:docname="38.svg">
  <defs
     id="defs4246" />
  <sodipodi:namedview
     id="base"
     pagecolor="#ffffff"
     bordercolor="#666666"
     borderopacity="1.0"
     inkscape:pageopacity="0.0"
     inkscape:pageshadow="2"
     inkscape:zoom="32"
     inkscape:cx="2.7963281"
     inkscape:cy="0.87170618"
     inkscape:document-units="px"
     inkscape:current-layer="g4783"
     showgrid="true"
     units="px"
     inkscape:window-width="1366"
     inkscape:window-height="705"
     inkscape:window-x="-8"
     inkscape:window-y="-8"
     inkscape:window-maximized="1"
     inkscape:snap-bbox="true"
     inkscape:bbox-paths="true"
     inkscape:bbox-nodes="true"
     inkscape:snap-bbox-edge-midpoints="true"
     inkscape:snap-bbox-midpoints="true">
    <inkscape:grid
       type="xygrid"
       id="grid4252" />
  </sodipodi:namedview>
  <metadata
     id="metadata4249">
    <rdf:RDF>
      <cc:Work
         rdf:about="">
        <dc:format>image/svg+xml</dc:format>
        <dc:type
           rdf:resource="http://purl.org/dc/dcmitype/StillImage" />
        <dc:title></dc:title>
      </cc:Work>
    </rdf:RDF>
  </metadata>
  <g
     inkscape:label="Layer 1"
     inkscape:groupmode="layer"
     id="layer1"
     transform="translate(0,-1020.3622)">
    <g
       id="g4783"
       transform="translate(-4.2590071,-3.0333347)">
      <g
         id="g10466">
        <path
           inkscape:connector-curvature="0"
           id="path7100"
           d="m 24.259766,1052.3945 0,1 5,0 0,-1 -5,0 z"
           style="color:#000000;font-style:normal;font-variant:normal;font-weight:normal;font-stretch:normal;font-size:medium;line-height:normal;font-family:sans-serif;text-indent:0;text-align:start;text-decoration:none;text-decoration-line:none;text-decoration-style:solid;text-decoration-color:#000000;letter-spacing:normal;word-spacing:normal;text-transform:none;direction:ltr;block-progression:tb;writing-mode:lr-tb;baseline-shift:baseline;text-anchor:start;white-space:normal;clip-rule:nonzero;display:inline;overflow:visible;visibility:visible;opacity:1;isolation:auto;mix-blend-mode:normal;color-interpolation:sRGB;color-interpolation-filters:linearRGB;solid-color:#000000;solid-opacity:1;fill:#006ef4;fill-opacity:1;fill-rule:evenodd;stroke:none;stroke-width:1px;stroke-linecap:butt;stroke-linejoin:miter;stroke-miterlimit:4;stroke-dasharray:none;stroke-dashoffset:0;stroke-opacity:1;color-rendering:auto;image-rendering:auto;shape-rendering:auto;text-rendering:auto;enable-background:accumulate" />
        <path
           inkscape:connector-curvature="0"
           id="path11129"
           d="m 18.251953,1036.1465 a 0.50005,0.50005 0 0 0 -0.492187,0.5058 l 0,4 a 0.50005,0.50005 0 1 0 1,0 l 0,-4 a 0.50005,0.50005 0 0 0 -0.507813,-0.5058 z"
           style="color:#000000;font-style:normal;font-variant:normal;font-weight:normal;font-stretch:normal;font-size:medium;line-height:normal;font-family:sans-serif;text-indent:0;text-align:start;text-decoration:none;text-decoration-line:none;text-decoration-style:solid;text-decoration-color:#000000;letter-spacing:normal;word-spacing:normal;text-transform:none;direction:ltr;block-progression:tb;writing-mode:lr-tb;baseline-shift:baseline;text-anchor:start;white-space:normal;clip-rule:nonzero;display:inline;overflow:visible;visibility:visible;opacity:1;isolation:auto;mix-blend-mode:normal;color-interpolation:sRGB;color-interpolation-filters:linearRGB;solid-color:#000000;solid-opacity:1;fill:#3c3b41;fill-opacity:1;fill-rule:evenodd;stroke:none;stroke-width:1px;stroke-linecap:round;stroke-linejoin:round;stroke-miterlimit:4;stroke-dasharray:none;stroke-dashoffset:0;stroke-opacity:1;color-rendering:auto;image-rendering:auto;shape-rendering:auto;text-rendering:auto;enable-background:accumulate" />
        <path
           style="fill:#e6001f;fill-opacity:1;stroke:none;stroke-width:1;stroke-linecap:round;stroke-linejoin:round"
           d="m 22.759573,1038.1455 c -0.277,0 -0.5,0.223 -0.5,0.5001 0,0.2769 -0.223,0.4999 -0.5,0.4999 l -7.5,0 c -0.277,0 -0.5,-0.223 -0.5,-0.4999 l -0.5,0 0,15.7499 c 0,0.5541 0.44599,1 1,1 l 8,0 c 0.55401,0 1,-0.4459 1,-1 l 0,-11.75 0,-3.9999 c 0,-0.2771 -0.223,-0.5001 -0.5,-0.5001 z"
           id="path11131"
           inkscape:connector-curvature="0"
           sodipodi:nodetypes="ssssccsssscss" />
        <path
           id="rect11133"
           d="m 13.259573,1037.6455 c 0.277,0 0.5,0.223 0.5,0.5 l 0,4 c 0,0.277 -0.223,0.5 -0.5,0.5 -0.277,0 -0.5,-0.223 -0.5,-0.5 l 0,-4 c 0,-0.277 0.223,-0.5 0.5,-0.5 z"
           style="fill:#990012;fill-opacity:1;stroke:none;stroke-width:1;stroke-linecap:round;stroke-linejoin:round" />
        <path
           inkscape:connector-curvature="0"
           id="path11137"
           d="m 13.759573,1038.6456 0,3 c 0,-0.2771 0.223,-0.5001 0.5,-0.5001 0.277,0 0.5,0.223 0.5,0.5001 l 0,-2.5001 -0.5,0 c -0.277,0 -0.5,-0.223 -0.5,-0.4999 z"
           style="fill:#990012;fill-opacity:1;stroke:none;stroke-width:1;stroke-linecap:round;stroke-linejoin:round" />
        <path
           sodipodi:nodetypes="cssscc"
           inkscape:connector-curvature="0"
           id="path11139"
           d="m 15.759573,1039.1455 0,3.5 c 0,0.2771 -0.223,0.5001 -0.5,0.5001 -0.277,0 -0.5,-0.223 -0.5,-0.5001 l 0,-3.5 z"
           style="fill:#990012;fill-opacity:1;stroke:none;stroke-width:1;stroke-linecap:round;stroke-linejoin:round" />
        <path
           id="rect11141"
           d="m 15.259573,1044.1455 c 0.277,0 0.5,0.223 0.5,0.5 l 0,1 c 0,0.277 -0.223,0.5 -0.5,0.5 -0.277,0 -0.5,-0.223 -0.5,-0.5 l 0,-1 c 0,-0.277 0.223,-0.5 0.5,-0.5 z"
           style="fill:#990012;fill-opacity:1;stroke:none;stroke-width:1;stroke-linecap:round;stroke-linejoin:round" />
        <path
           inkscape:connector-curvature="0"
           id="path11143"
           d="m 15.759573,1039.1455 0,1.0001 c 0,-0.2771 0.223,-0.5001 0.5,-0.5001 0.277,0 0.5,0.223 0.5,0.5001 l 0,-1.0001 -1,0 z"
           style="fill:#990012;fill-opacity:1;stroke:none;stroke-width:1;stroke-linecap:round;stroke-linejoin:round" />
        <path
           style="fill:#990012;fill-opacity:1;stroke:none;stroke-width:1;stroke-linecap:round;stroke-linejoin:round"
           d="m 17.759573,1039.1455 0,1.5 c 0,0.2771 -0.223,0.5 -0.5,0.5 -0.277,0 -0.5,-0.2229 -0.5,-0.5 l 0,-1.5 z"
           id="path11145"
           inkscape:connector-curvature="0"
           sodipodi:nodetypes="cssscc" />
        <path
           id="rect11147"
           d="m 17.259573,1042.1455 c 0.277,0 0.5,0.223 0.5,0.5 l 0,0 c 0,0.277 -0.223,0.5 -0.5,0.5 -0.277,0 -0.5,-0.223 -0.5,-0.5 l 0,0 c 0,-0.277 0.223,-0.5 0.5,-0.5 z"
           style="fill:#990012;fill-opacity:1;stroke:none;stroke-width:1;stroke-linecap:round;stroke-linejoin:round" />
        <path
           id="rect11149"
           d="m 13.259573,1043.6455 c 0.277,0 0.5,0.223 0.5,0.5 l 0,0.5 c 0,0.277 -0.223,0.5 -0.5,0.5 -0.277,0 -0.5,-0.223 -0.5,-0.5 l 0,-0.5 c 0,-0.277 0.223,-0.5 0.5,-0.5 z"
           style="fill:#990012;fill-opacity:1;stroke:none;stroke-width:1;stroke-linecap:round;stroke-linejoin:round" />
        <path
           sodipodi:nodetypes="scscs"
           inkscape:connector-curvature="0"
           id="path11153"
           d="m 21.3145,1033.951 c 0,2.7493 -2.1728,2.7493 -3.05493,4.2772 -0.9165,-1.5279 -3.05492,-1.5279 -3.05492,-4.2772 0,-1.6594 2.13842,-4.5845 3.05492,-10.5555 0.61138,5.971 3.05493,8.8996 3.05493,10.5555 z"
           style="fill:#ffa920;fill-opacity:1;stroke:none;stroke-width:0.5;stroke-opacity:1" />
        <path
           sodipodi:nodetypes="ccccc"
           inkscape:connector-curvature="0"
           id="path11155"
           d="m 18.19534,1027.8374 c -0.54061,3.6681 -2.07398,4.2793 -2.07398,6.1324 0,1.8138 1.22171,1.8138 2.13844,2.7305 0.91673,-0.9167 2.13844,-0.9167 2.13844,-2.7245 0,-2.1647 -1.52729,-2.4703 -2.2029,-6.1384 z"
           style="fill:#ff9a00;fill-opacity:1;stroke:none;stroke-width:0.5;stroke-opacity:1" />
        <path
           sodipodi:nodetypes="cccccccc"
           inkscape:connector-curvature="0"
           id="path11157"
           d="m 18.25383,1030.9308 c -0.29961,1.797 -1.21335,2.1026 -1.21335,3.0719 -0.005,0.647 0.30259,0.8642 1.21932,1.7809 0.91673,-0.9167 1.2398,-1.1476 1.2223,-1.7833 l -6.1e-4,-0.012 0,-0.012 c 2e-5,-0.9424 -0.91612,-1.248 -1.22766,-3.045 z"
           style="fill:#ff643e;fill-opacity:1;stroke:none;stroke-width:0.5;stroke-opacity:1" />
        <path
           style="fill:#ff9a00;fill-opacity:1;stroke:none;stroke-width:0.5;stroke-opacity:1"
           d="m 20.24199,1030.8278 c -0.14744,2.4948 -1.82582,4.637 -4.21289,5.377 0.70336,0.7351 1.68256,1.11 2.23047,2.0234 0.88213,-1.5279 3.05469,-1.528 3.05469,-4.2773 0,-0.7247 -0.49468,-1.7626 -1.07227,-3.1231 z"
           id="path13545"
           inkscape:connector-curvature="0"
           sodipodi:nodetypes="cccsc" />
        <path
           inkscape:connector-curvature="0"
           style="fill:#ff8901;fill-opacity:1;stroke:none;stroke-width:0.5;stroke-opacity:1"
           d="m 19.98418,1032.2731 a 5.9999914,5.9999914 0 0 1 -2.95313,3.5235 c 0.38773,0.2754 0.83101,0.5068 1.22852,0.9043 0.91673,-0.9167 2.13867,-0.9168 2.13867,-2.7246 0,-0.7053 -0.17207,-1.212 -0.41406,-1.7032 z"
           id="path13547" />
        <path
           inkscape:connector-curvature="0"
           style="fill:#ff4e18;fill-opacity:1;stroke:none;stroke-width:0.5;stroke-opacity:1"
           d="m 19.40605,1033.5505 a 5.9999914,5.9999914 0 0 1 -1.61328,1.7676 c 0.13797,0.1374 0.28151,0.2795 0.4668,0.4648 0.91673,-0.9167 1.24016,-1.1475 1.22266,-1.7832 l 0,-0.012 0,-0.012 c 0,-0.157 -0.0324,-0.2943 -0.0762,-0.4258 z"
           id="path13549" />
        <path
           sodipodi:nodetypes="cscccccccc"
           id="path7013"
           d="m 9.75957,1051.3955 c -0.17884,-2e-4 -0.34417,0.095 -0.43359,0.25 -0.0893,0.1547 -0.0893,0.3453 0,0.5 l 2.03359,3.05 0.393,0.2 12.60954,0 0,-3.25 0,-0.5 0,-0.25 z"
           style="fill:#006ef4;fill-opacity:1;stroke:none;stroke-width:1;stroke-linecap:round;stroke-linejoin:round;stroke-opacity:1"
           inkscape:connector-curvature="0" />
        <path
           inkscape:connector-curvature="0"
           id="path7102"
           d="m 30.259766,1051.3945 c -1.098648,0 -2,0.9014 -2,2 0,1.0987 0.901352,2 2,2 1.098647,0 2,-0.9013 2,-2 0,-1.0986 -0.901353,-2 -2,-2 z m 0,1 c 0.558207,0 1,0.4418 1,1 0,0.5582 -0.441793,1 -1,1 -0.558207,0 -1,-0.4418 -1,-1 0,-0.5582 0.441793,-1 1,-1 z"
           style="color:#000000;font-style:normal;font-variant:normal;font-weight:normal;font-stretch:normal;font-size:medium;line-height:normal;font-family:sans-serif;text-indent:0;text-align:start;text-decoration:none;text-decoration-line:none;text-decoration-style:solid;text-decoration-color:#000000;letter-spacing:normal;word-spacing:normal;text-transform:none;direction:ltr;block-progression:tb;writing-mode:lr-tb;baseline-shift:baseline;text-anchor:start;white-space:normal;clip-rule:nonzero;display:inline;overflow:visible;visibility:visible;opacity:1;isolation:auto;mix-blend-mode:normal;color-interpolation:sRGB;color-interpolation-filters:linearRGB;solid-color:#000000;solid-opacity:1;fill:#006ef4;fill-opacity:1;fill-rule:nonzero;stroke:none;stroke-width:1;stroke-linecap:round;stroke-linejoin:round;stroke-miterlimit:4;stroke-dasharray:none;stroke-dashoffset:0;stroke-opacity:1;color-rendering:auto;image-rendering:auto;shape-rendering:auto;text-rendering:auto;enable-background:accumulate" />
        <path
           id="rect7148"
           d="m 22.259587,1051.3955 2.999965,0 c 0.554009,0 1.000017,0.446 1.000017,1 l 0,2 c 0,0.554 -0.446008,1 -1.000017,1 l -2.999965,0 c -0.55401,0 -1.000018,-0.446 -1.000018,-1 l 0,-2 c 0,-0.554 0.446008,-1 1.000018,-1 z"
           style="fill:#006ef4;fill-opacity:1;stroke:none;stroke-width:1;stroke-linecap:round;stroke-linejoin:round;stroke-opacity:1" />
        <path
           id="rect7152"
           d="m 21.759569,1053.3955 4,0 c 0.277,0 0.5,0.223 0.5,0.5 l 0,1 c 0,0.277 -0.223,0.5 -0.5,0.5 l -4,0 c -0.277,0 -0.5,-0.223 -0.5,-0.5 l 0,-1 c 0,-0.277 0.223,-0.5 0.5,-0.5 z"
           style="fill:#006ef4;fill-opacity:1;stroke:none;stroke-width:1;stroke-linecap:round;stroke-linejoin:round;stroke-opacity:1" />
        <path
           id="path7154"
           d="m 11.75957,1055.3955 a 0.5,0.5 0 0 1 -0.445548,-0.2731 l 0.445548,-0.2269 z"
           style="fill:#006ef4;fill-opacity:1;stroke:none;stroke-width:1;stroke-linecap:round;stroke-linejoin:round;stroke-opacity:1" />
      </g>
    </g>
  </g>
</svg>
