<?xml version="1.0" encoding="UTF-8" standalone="no"?>
<!-- Created with Inkscape (http://www.inkscape.org/) -->

<svg
   xmlns:dc="http://purl.org/dc/elements/1.1/"
   xmlns:cc="http://creativecommons.org/ns#"
   xmlns:rdf="http://www.w3.org/1999/02/22-rdf-syntax-ns#"
   xmlns:svg="http://www.w3.org/2000/svg"
   xmlns="http://www.w3.org/2000/svg"
   xmlns:sodipodi="http://sodipodi.sourceforge.net/DTD/sodipodi-0.dtd"
   xmlns:inkscape="http://www.inkscape.org/namespaces/inkscape"
   width="32"
   height="32"
   viewBox="0 0 32 32.000001"
   id="svg4244"
   version="1.1"
   inkscape:version="0.91 r13725"
   sodipodi:docname="32.svg">
  <defs
     id="defs4246" />
  <sodipodi:namedview
     id="base"
     pagecolor="#ffffff"
     bordercolor="#666666"
     borderopacity="1.0"
     inkscape:pageopacity="0.0"
     inkscape:pageshadow="2"
     inkscape:zoom="32"
     inkscape:cx="0.8283356"
     inkscape:cy="12.155889"
     inkscape:document-units="px"
     inkscape:current-layer="g4783"
     showgrid="true"
     units="px"
     inkscape:window-width="1366"
     inkscape:window-height="705"
     inkscape:window-x="-8"
     inkscape:window-y="-8"
     inkscape:window-maximized="1"
     inkscape:snap-bbox="true"
     inkscape:bbox-paths="true"
     inkscape:bbox-nodes="true"
     inkscape:snap-bbox-edge-midpoints="true"
     inkscape:snap-bbox-midpoints="true">
    <inkscape:grid
       type="xygrid"
       id="grid4252" />
  </sodipodi:namedview>
  <metadata
     id="metadata4249">
    <rdf:RDF>
      <cc:Work
         rdf:about="">
        <dc:format>image/svg+xml</dc:format>
        <dc:type
           rdf:resource="http://purl.org/dc/dcmitype/StillImage" />
        <dc:title></dc:title>
      </cc:Work>
    </rdf:RDF>
  </metadata>
  <g
     inkscape:label="Layer 1"
     inkscape:groupmode="layer"
     id="layer1"
     transform="translate(0,-1020.3622)">
    <g
       id="g4783"
       transform="translate(-4.2590071,-3.0333347)">
      <g
         id="g9195">
        <path
           style="fill:#e6001f;fill-opacity:1;stroke:none;stroke-width:1;stroke-linecap:round;stroke-linejoin:round;stroke-opacity:1"
           d="m 29.439784,1030.5609 c -1.559035,0.8042 -2.464102,3.732 -2.464102,3.732 l 1,1.7321 c 0,0 3.069414,0.5372 4.464102,-0.268 0.479778,-0.277 0.645175,-0.8825 0.366025,-1.366 -0.27915,-0.4835 -0.746663,-0.2933 -0.933012,-0.616 -0.18635,-0.3228 0.119362,-0.7933 -0.06699,-1.1161 -0.18635,-0.3227 -0.746663,-0.2932 -0.933012,-0.616 -0.1951,-0.3379 0.172412,-0.7013 -0.06699,-1.116 -0.34285,-0.5938 -0.886247,-0.643 -1.366025,-0.366 z"
           id="path5815"
           inkscape:connector-curvature="0"
           sodipodi:nodetypes="cccczzzccc" />
        <path
           inkscape:connector-curvature="0"
           id="path5817"
           d="m 29.085938,1032.541 a 0.50005,0.50005 0 0 0 -0.34375,0.1524 l -1.414063,1.414 a 0.50005,0.50005 0 1 0 0.707031,0.7071 l 1.414063,-1.4141 a 0.50005,0.50005 0 0 0 -0.363281,-0.8594 z"
           style="color:#000000;font-style:normal;font-variant:normal;font-weight:normal;font-stretch:normal;font-size:medium;line-height:normal;font-family:sans-serif;text-indent:0;text-align:start;text-decoration:none;text-decoration-line:none;text-decoration-style:solid;text-decoration-color:#000000;letter-spacing:normal;word-spacing:normal;text-transform:none;direction:ltr;block-progression:tb;writing-mode:lr-tb;baseline-shift:baseline;text-anchor:start;white-space:normal;clip-rule:nonzero;display:inline;overflow:visible;visibility:visible;opacity:1;isolation:auto;mix-blend-mode:normal;color-interpolation:sRGB;color-interpolation-filters:linearRGB;solid-color:#000000;solid-opacity:1;fill:#990012;fill-opacity:1;fill-rule:evenodd;stroke:none;stroke-width:1px;stroke-linecap:round;stroke-linejoin:round;stroke-miterlimit:4;stroke-dasharray:none;stroke-dashoffset:0;stroke-opacity:1;color-rendering:auto;image-rendering:auto;shape-rendering:auto;text-rendering:auto;enable-background:accumulate" />
        <path
           inkscape:connector-curvature="0"
           id="path5819"
           d="m 30.107422,1034.293 a 0.50005,0.50005 0 0 0 -0.132813,0.018 l -1.93164,0.5176 a 0.50029223,0.50029223 0 1 0 0.257812,0.9668 l 1.933594,-0.5176 a 0.50005,0.50005 0 0 0 -0.126953,-0.9843 z"
           style="color:#000000;font-style:normal;font-variant:normal;font-weight:normal;font-stretch:normal;font-size:medium;line-height:normal;font-family:sans-serif;text-indent:0;text-align:start;text-decoration:none;text-decoration-line:none;text-decoration-style:solid;text-decoration-color:#000000;letter-spacing:normal;word-spacing:normal;text-transform:none;direction:ltr;block-progression:tb;writing-mode:lr-tb;baseline-shift:baseline;text-anchor:start;white-space:normal;clip-rule:nonzero;display:inline;overflow:visible;visibility:visible;opacity:1;isolation:auto;mix-blend-mode:normal;color-interpolation:sRGB;color-interpolation-filters:linearRGB;solid-color:#000000;solid-opacity:1;fill:#990012;fill-opacity:1;fill-rule:evenodd;stroke:none;stroke-width:1px;stroke-linecap:round;stroke-linejoin:round;stroke-miterlimit:4;stroke-dasharray:none;stroke-dashoffset:0;stroke-opacity:1;color-rendering:auto;image-rendering:auto;shape-rendering:auto;text-rendering:auto;enable-background:accumulate" />
        <path
           sodipodi:nodetypes="cccczzzccc"
           inkscape:connector-curvature="0"
           id="rect5806"
           d="m 7.7891462,1043.0609 c 1.4760344,-0.9481 4.4641018,-0.268 4.4641018,-0.268 l 1,1.7321 c 0,0 -1.069414,2.9268 -2.464102,3.732 -0.479778,0.277 -1.0868752,0.1175 -1.3660252,-0.366 -0.27915,-0.4835 0.1193627,-0.7933 -0.066987,-1.116 -0.18635,-0.3228 -0.7466627,-0.2933 -0.9330127,-0.6161 -0.18635,-0.3227 0.1193627,-0.7932 -0.066987,-1.116 -0.1951,-0.3379 -0.6936127,-0.2013 -0.9330127,-0.616 -0.34285,-0.5938 -0.1137527,-1.089 0.3660254,-1.366 z"
           style="fill:#e6001f;fill-opacity:1;stroke:none;stroke-width:1;stroke-linecap:round;stroke-linejoin:round;stroke-opacity:1" />
        <path
           inkscape:connector-curvature="0"
           id="path5811"
           d="m 12.048828,1042.9863 a 0.50005,0.50005 0 0 0 -0.132812,0.018 l -1.931641,0.5176 a 0.50054486,0.50054486 0 0 0 0.259766,0.9668 l 1.93164,-0.5176 a 0.50005,0.50005 0 0 0 -0.126953,-0.9844 z"
           style="color:#000000;font-style:normal;font-variant:normal;font-weight:normal;font-stretch:normal;font-size:medium;line-height:normal;font-family:sans-serif;text-indent:0;text-align:start;text-decoration:none;text-decoration-line:none;text-decoration-style:solid;text-decoration-color:#000000;letter-spacing:normal;word-spacing:normal;text-transform:none;direction:ltr;block-progression:tb;writing-mode:lr-tb;baseline-shift:baseline;text-anchor:start;white-space:normal;clip-rule:nonzero;display:inline;overflow:visible;visibility:visible;opacity:1;isolation:auto;mix-blend-mode:normal;color-interpolation:sRGB;color-interpolation-filters:linearRGB;solid-color:#000000;solid-opacity:1;fill:#990012;fill-opacity:1;fill-rule:evenodd;stroke:none;stroke-width:1px;stroke-linecap:round;stroke-linejoin:round;stroke-miterlimit:4;stroke-dasharray:none;stroke-dashoffset:0;stroke-opacity:1;color-rendering:auto;image-rendering:auto;shape-rendering:auto;text-rendering:auto;enable-background:accumulate" />
        <path
           inkscape:connector-curvature="0"
           id="path5813"
           d="m 12.527344,1043.834 a 0.50005,0.50005 0 0 0 -0.34375,0.1504 l -1.414063,1.414 a 0.50005,0.50005 0 1 0 0.707031,0.7071 l 1.414063,-1.4141 a 0.50005,0.50005 0 0 0 -0.363281,-0.8574 z"
           style="color:#000000;font-style:normal;font-variant:normal;font-weight:normal;font-stretch:normal;font-size:medium;line-height:normal;font-family:sans-serif;text-indent:0;text-align:start;text-decoration:none;text-decoration-line:none;text-decoration-style:solid;text-decoration-color:#000000;letter-spacing:normal;word-spacing:normal;text-transform:none;direction:ltr;block-progression:tb;writing-mode:lr-tb;baseline-shift:baseline;text-anchor:start;white-space:normal;clip-rule:nonzero;display:inline;overflow:visible;visibility:visible;opacity:1;isolation:auto;mix-blend-mode:normal;color-interpolation:sRGB;color-interpolation-filters:linearRGB;solid-color:#000000;solid-opacity:1;fill:#990012;fill-opacity:1;fill-rule:evenodd;stroke:none;stroke-width:1px;stroke-linecap:round;stroke-linejoin:round;stroke-miterlimit:4;stroke-dasharray:none;stroke-dashoffset:0;stroke-opacity:1;color-rendering:auto;image-rendering:auto;shape-rendering:auto;text-rendering:auto;enable-background:accumulate" />
        <path
           id="rect5804"
           d="m -507.78485,906.21179 11,0 c 2.216,0 4,1.784 4,4 0,2.216 -1.784,4 -4,4 l -11,0 c -2.216,0 -4,-1.784 -4,-4 0,-2.216 1.784,-4 4,-4 z"
           style="fill:#e6001f;fill-opacity:1;stroke:none;stroke-width:1;stroke-linecap:round;stroke-linejoin:round;stroke-opacity:1"
           transform="matrix(0.8660254,-0.5,0.5,0.8660254,0,0)" />
        <path
           id="path5827"
           d="m 10.397018,1035.7592 c -0.06763,0.068 -0.8005447,-0.3521 -0.895005,-0.3371 -0.09446,0.015 -0.6618212,0.6405 -0.7470351,0.5971 -0.085214,-0.043 0.087433,-0.8701 0.044015,-0.9553 -0.043419,-0.085 -0.8137386,-0.4315 -0.7987776,-0.526 0.014961,-0.094 0.8545811,-0.1857 0.9222072,-0.2533 0.067626,-0.068 0.1589031,-0.9073 0.2533634,-0.9222 0.09446,-0.015 0.4407267,0.7553 0.5259406,0.7987 0.085214,0.043 0.9119457,-0.1292 0.9553647,-0.044 0.04342,0.085 -0.582197,0.6526 -0.597158,0.7471 -0.01496,0.094 0.404711,0.8273 0.337085,0.895 z"
           style="fill:#ff9a00;fill-opacity:1;stroke:none;stroke-width:1;stroke-linecap:round;stroke-linejoin:round;stroke-opacity:1"
           transform="matrix(0.8660254,-0.5,0.5,0.8660254,-511.49003,149.64296)" />
        <path
           id="path5829"
           d="m 16.067392,1035.7592 c -0.06763,0.068 -0.800544,-0.3521 -0.895004,-0.3371 -0.09446,0.015 -0.661821,0.6405 -0.747035,0.5971 -0.08521,-0.043 0.08743,-0.8701 0.04401,-0.9553 -0.04342,-0.085 -0.813739,-0.4315 -0.798778,-0.526 0.01496,-0.094 0.854581,-0.1857 0.922207,-0.2533 0.06763,-0.068 0.158903,-0.9073 0.253364,-0.9222 0.09446,-0.015 0.440726,0.7553 0.52594,0.7987 0.08521,0.043 0.911946,-0.1292 0.955365,-0.044 0.04342,0.085 -0.582197,0.6526 -0.597158,0.7471 -0.01496,0.094 0.404711,0.8273 0.337084,0.895 z"
           style="fill:#ff9a00;fill-opacity:1;stroke:none;stroke-width:1;stroke-linecap:round;stroke-linejoin:round;stroke-opacity:1"
           transform="matrix(0.8660254,-0.5,0.5,0.8660254,-511.49003,149.64296)" />
        <path
           id="path5831"
           d="m 21.737766,1035.7592 c -0.06763,0.068 -0.800544,-0.3521 -0.895004,-0.3371 -0.09446,0.015 -0.661821,0.6405 -0.747035,0.5971 -0.08521,-0.043 0.08743,-0.8701 0.04401,-0.9553 -0.04342,-0.085 -0.813738,-0.4315 -0.798777,-0.526 0.01496,-0.094 0.854581,-0.1857 0.922207,-0.2533 0.06763,-0.068 0.158903,-0.9073 0.253364,-0.9222 0.09446,-0.015 0.440726,0.7553 0.52594,0.7987 0.08521,0.043 0.911946,-0.1292 0.955365,-0.044 0.04342,0.085 -0.582197,0.6526 -0.597158,0.7471 -0.01496,0.094 0.40471,0.8273 0.337084,0.895 z"
           style="fill:#ff9a00;fill-opacity:1;stroke:none;stroke-width:1;stroke-linecap:round;stroke-linejoin:round;stroke-opacity:1"
           transform="matrix(0.8660254,-0.5,0.5,0.8660254,-511.49003,149.64296)" />
        <path
           id="path5833"
           d="m 13.232205,1039.1 c -0.06763,0.068 -0.800545,-0.3521 -0.895005,-0.3371 -0.09446,0.015 -0.661821,0.6406 -0.747035,0.5971 -0.08521,-0.043 0.08743,-0.8701 0.04401,-0.9553 -0.04342,-0.085 -0.813739,-0.4315 -0.798778,-0.526 0.01496,-0.094 0.854581,-0.1857 0.922207,-0.2533 0.06763,-0.068 0.158903,-0.9073 0.253364,-0.9222 0.09446,-0.015 0.440726,0.7553 0.52594,0.7988 0.08521,0.043 0.911946,-0.1293 0.955365,-0.044 0.04342,0.085 -0.582197,0.6526 -0.597158,0.7471 -0.01496,0.094 0.404711,0.8273 0.337085,0.895 z"
           style="fill:#ff9a00;fill-opacity:1;stroke:none;stroke-width:1;stroke-linecap:round;stroke-linejoin:round;stroke-opacity:1"
           transform="matrix(0.8660254,-0.5,0.5,0.8660254,-511.49003,149.64296)" />
        <path
           id="path5835"
           d="m 18.902578,1039.1 c -0.06763,0.068 -0.800544,-0.3521 -0.895004,-0.3371 -0.09446,0.015 -0.661821,0.6406 -0.747035,0.5971 -0.08521,-0.043 0.08743,-0.8701 0.04401,-0.9553 -0.04342,-0.085 -0.813739,-0.4315 -0.798778,-0.526 0.01496,-0.094 0.854581,-0.1857 0.922207,-0.2533 0.06763,-0.068 0.158903,-0.9073 0.253364,-0.9222 0.09446,-0.015 0.440726,0.7553 0.52594,0.7988 0.08521,0.043 0.911946,-0.1293 0.955365,-0.044 0.04342,0.085 -0.582197,0.6526 -0.597158,0.7471 -0.01496,0.094 0.404711,0.8273 0.337084,0.895 z"
           style="fill:#ff9a00;fill-opacity:1;stroke:none;stroke-width:1;stroke-linecap:round;stroke-linejoin:round;stroke-opacity:1"
           transform="matrix(0.8660254,-0.5,0.5,0.8660254,-511.49003,149.64296)" />
      </g>
    </g>
  </g>
</svg>
